<svg xmlns="http://www.w3.org/2000/svg" xmlns:xlink="http://www.w3.org/1999/xlink" width="500" zoomAndPan="magnify" viewBox="0 0 375 374.999991" height="500" preserveAspectRatio="xMidYMid meet" version="1.0"><defs><clipPath id="4dbf1aca84"><path d="M 2 203 L 352 203 L 352 305.0625 L 2 305.0625 Z M 2 203 " clip-rule="nonzero"/></clipPath></defs><path fill="#000000" d="M 105.265625 186.257812 C 103.449219 186.257812 101.605469 185.851562 99.898438 184.996094 C 97.675781 183.894531 78.273438 173.027344 78.273438 132.839844 C 78.273438 129.386719 78.429688 125.875 78.601562 122.363281 C 79.035156 112.941406 79.5 103.191406 75.824219 99.335938 C 73.308594 96.695312 67.675781 95.296875 59.554688 95.296875 C 44.964844 95.296875 39.96875 103.285156 39.457031 104.203125 C 36.304688 109.707031 29.289062 111.804688 23.730469 108.820312 C 18.191406 105.820312 15.941406 99.089844 18.796875 93.445312 C 22.816406 85.46875 35.933594 71.976562 59.554688 71.976562 C 74.628906 71.976562 85.460938 75.660156 92.679688 83.230469 C 103.234375 94.300781 102.503906 109.785156 101.867188 123.449219 C 101.710938 126.605469 101.558594 129.761719 101.558594 132.839844 C 101.558594 158.007812 110.761719 164.367188 110.855469 164.429688 C 116.613281 167.304688 118.660156 174.148438 115.789062 179.914062 C 113.773438 183.972656 109.582031 186.257812 105.265625 186.257812 Z M 105.265625 186.257812 " fill-opacity="1" fill-rule="nonzero"/><path fill="#000000" d="M 59.554688 186.210938 C 31.679688 186.210938 17.539062 174.644531 17.539062 151.804688 C 17.539062 129.203125 38.664062 117.386719 59.554688 117.386719 C 86.003906 117.386719 96.527344 127.101562 98.375 129.0625 C 102.101562 133.011719 102.535156 138.886719 99.773438 143.285156 C 103.234375 146.519531 104.507812 151.683594 102.566406 156.316406 C 102.054688 157.527344 89.730469 186.210938 59.554688 186.210938 Z M 59.554688 140.707031 C 52.308594 140.707031 40.820312 143.722656 40.820312 151.804688 C 40.820312 158.257812 40.820312 162.90625 59.554688 162.90625 C 74.175781 162.90625 81.023438 147.46875 81.101562 147.3125 C 81.332031 146.691406 81.628906 146.132812 81.96875 145.601562 C 81.921875 145.558594 81.890625 145.527344 81.859375 145.496094 C 81.222656 145.011719 75.125 140.707031 59.554688 140.707031 Z M 59.554688 140.707031 " fill-opacity="1" fill-rule="nonzero"/><path fill="#000000" d="M 226.242188 186.210938 C 221.226562 186.210938 216.789062 182.992188 215.207031 178.25 L 195.882812 120.308594 L 176.558594 178.25 C 174.957031 183.007812 170.519531 186.210938 165.523438 186.210938 C 160.523438 186.210938 156.070312 182.992188 154.484375 178.25 L 124.09375 87.226562 C 122.046875 81.117188 125.351562 74.511719 131.4375 72.472656 C 137.566406 70.421875 144.148438 73.734375 146.183594 79.828125 L 165.507812 137.769531 L 184.832031 79.828125 C 186.414062 75.085938 190.867188 71.867188 195.867188 71.867188 C 200.863281 71.867188 205.320312 75.085938 206.902344 79.828125 L 226.242188 137.785156 L 245.566406 79.9375 C 247.597656 73.824219 254.195312 70.5 260.296875 72.566406 C 266.394531 74.617188 269.6875 81.226562 267.652344 87.320312 L 237.277344 178.234375 C 235.695312 183.007812 231.253906 186.210938 226.242188 186.210938 Z M 226.242188 186.210938 " fill-opacity="1" fill-rule="nonzero"/><path fill="#000000" d="M 325.71875 186.210938 L 302.15625 186.210938 C 295.730469 186.210938 290.515625 180.988281 290.515625 174.550781 C 290.515625 168.113281 295.730469 162.890625 302.15625 162.890625 L 325.71875 162.890625 C 331.429688 162.890625 336.070312 158.257812 336.070312 152.566406 C 336.070312 148.011719 333.230469 144.078125 328.996094 142.679688 L 313.519531 137.519531 C 299.765625 132.933594 290.515625 120.109375 290.515625 105.601562 C 290.515625 87.054688 305.601562 71.960938 324.152344 71.960938 L 347.714844 71.960938 C 354.140625 71.960938 359.355469 77.183594 359.355469 83.621094 C 359.355469 90.054688 354.140625 95.28125 347.714844 95.28125 L 324.152344 95.28125 C 318.441406 95.28125 313.796875 99.914062 313.796875 105.601562 C 313.796875 110.050781 316.640625 113.980469 320.875 115.382812 L 336.351562 120.542969 C 350.117188 125.128906 359.355469 137.953125 359.355469 152.460938 C 359.355469 171.128906 344.265625 186.210938 325.71875 186.210938 Z M 325.71875 186.210938 " fill-opacity="1" fill-rule="nonzero"/><g clip-path="url(#4dbf1aca84)"><path fill="#000000" d="M 184.472656 305.0625 C 63.328125 305.0625 6.472656 225.558594 4.113281 222.167969 C 0.433594 216.882812 1.722656 209.625 6.984375 205.9375 C 12.246094 202.269531 19.511719 203.542969 23.1875 208.816406 C 25.269531 211.769531 75.898438 281.742188 184.472656 281.742188 C 264.535156 281.742188 331.351562 222.960938 332.019531 222.371094 C 336.832031 218.082031 344.191406 218.515625 348.457031 223.335938 C 352.726562 228.140625 352.308594 235.507812 347.496094 239.800781 C 344.515625 242.457031 273.304688 305.0625 184.472656 305.0625 Z M 184.472656 305.0625 " fill-opacity="1" fill-rule="nonzero"/></g><path fill="#000000" d="M 347.371094 282.566406 C 346.441406 282.566406 345.507812 282.457031 344.578125 282.226562 C 338.339844 280.6875 334.519531 274.375 336.070312 268.109375 L 346.96875 223.910156 L 303.585938 234.792969 C 297.332031 236.316406 291.027344 232.554688 289.460938 226.320312 C 287.894531 220.085938 291.695312 213.742188 297.921875 212.171875 L 360.066406 196.59375 C 364.027344 195.617188 368.21875 196.765625 371.105469 199.644531 C 374.007812 202.535156 375.171875 206.730469 374.191406 210.695312 L 358.671875 273.707031 C 357.351562 279.023438 352.601562 282.566406 347.371094 282.566406 Z M 347.371094 282.566406 " fill-opacity="1" fill-rule="nonzero"/></svg>