<svg height="800" width="800" xmlns="http://www.w3.org/2000/svg" viewBox="0 0 512 512" xml:space="preserve"><path d="M461.81 197.514c-2.999-11.335-14.624-18.093-25.959-15.094-1.859.553-13.47 3.649-26.041 14.341a70.181 70.181 0 0 0-17.361 22.454c-4.741 9.69-7.678 21.577-7.657 35.033.013 16.345 4.133 34.895 13.449 56.257 6.275 14.403 9.137 29.697 9.137 44.846.069 25.627-8.432 50.756-21.114 68.283-6.297 8.777-13.546 15.606-20.824 20.022-2.986 1.81-5.944 3.131-8.888 4.181l.995-5.854c-.055-17.03-4.05-34.84-13.021-50.528-28.363-49.643-66.223-134.741-66.223-134.741l-1.534-4.879c29.47-7.796 58.58-23.408 73.155-54.985 38.931-84.344-41.086-142.73-41.086-142.73S282.886-2.102 269.914.06c-12.979 2.164-41.094 38.931-41.094 38.931h-47.57S153.143 2.224 140.164.06c-12.972-2.163-38.924 54.06-38.924 54.06s-80.011 58.386-41.08 142.73c13.822 29.953 40.735 45.572 68.628 53.748l-2.945 9.662s-31.916 81.552-60.279 131.195C37.201 441.092 58.473 512 97.48 512H312.626c12.648 0 23.374-7.547 31.197-19.324 15.834-.013 30.81-4.872 43.706-12.758 19.462-11.915 34.708-30.32 45.434-51.896 10.692-21.618 16.863-46.636 16.877-72.672 0-20.484-3.877-41.619-12.675-61.813-7.568-17.34-9.918-30.216-9.911-39.29.028-7.526 1.507-12.544 3.359-16.414a27.397 27.397 0 0 1 4.99-7.091c2.764-2.868 5.964-4.879 8.349-6.054a24.535 24.535 0 0 1 2.667-1.162l.457-.152-.014-.028c11.113-3.157 17.72-14.622 14.748-25.832zM273.591 24.506l9.579 23.954-23.948-4.79 14.369-19.164zm-138.915 0 14.368 19.165-23.947 4.79 9.579-23.955zM83.865 198.882l-.677-6.344 68.096-7.264.684 6.352-68.103 7.256zm70.321-28.522-69.782-5.502.498-6.358 69.782 5.488-.498 6.372zm-7.001-37.266c-9.4 0-17.043-7.63-17.043-17.036 0-9.399 7.643-17.029 17.043-17.029 9.406 0 17.029 7.63 17.029 17.029.001 9.406-7.622 17.036-17.029 17.036zm96.398 75.733c-5.446 1.299-10.284 1.914-14.618 1.914-5.736.007-10.622-1.098-14.658-3.124a24.036 24.036 0 0 1-9.247-8.238c-.352-.553-.552-1.126-.87-1.679-2.212 3.932-5.515 7.547-10.229 9.917-4.029 2.026-8.915 3.124-14.652 3.124-4.34-.006-9.164-.615-14.617-1.907a4.92 4.92 0 0 1-3.628-5.916 4.902 4.902 0 0 1 5.902-3.628c4.852 1.168 8.944 1.652 12.343 1.652 4.52 0 7.789-.844 10.228-2.074 2.447-1.244 4.147-2.875 5.502-4.893 2.681-3.988 3.635-9.8 3.608-14.921 0-2.909-.276-5.473-.56-7.36l-9.765-8.854a6.504 6.504 0 0 1-1.714-7.187 6.506 6.506 0 0 1 6.082-4.188h22.889c2.64 0 5.018 1.59 6.027 4.029a6.525 6.525 0 0 1-1.417 7.125l-10.153 10.152c-.221 1.756-.421 3.871-.421 6.269 0 3.828.511 8.085 1.921 11.624 1.444 3.573 3.56 6.352 7.194 8.204 2.44 1.23 5.709 2.074 10.236 2.074 3.408 0 7.499-.484 12.337-1.645 2.626-.629 5.28.995 5.902 3.621a4.9 4.9 0 0 1-3.622 5.909zm.47-92.769c0-9.399 7.63-17.029 17.036-17.029 9.406 0 17.036 7.63 17.036 17.029 0 9.406-7.63 17.036-17.036 17.036-9.406 0-17.036-7.63-17.036-17.036zm9.544 47.929 69.768-5.488.497 6.358-69.768 5.502-.497-6.372zm3.393 21.287 68.102 7.264-.684 6.344-68.096-7.257.678-6.351z" style="fill:#000"/></svg>
