<svg xmlns="http://www.w3.org/2000/svg" xmlns:xlink="http://www.w3.org/1999/xlink" width="500" zoomAndPan="magnify" viewBox="0 0 375 374.999991" height="500" preserveAspectRatio="xMidYMid meet" version="1.0"><defs><clipPath id="ebc6993e07"><path d="M 9 39.148438 L 373 39.148438 L 373 311.398438 L 9 311.398438 Z M 9 39.148438 " clip-rule="nonzero"/></clipPath></defs><g clip-path="url(#ebc6993e07)"><path fill="#000000" d="M 162.820312 39.148438 C 159.699219 39.148438 157.144531 41.699219 157.144531 44.820312 L 157.144531 84.523438 L 72.039062 84.523438 C 68.917969 84.523438 66.363281 87.074219 66.363281 90.195312 L 66.363281 129.898438 L 26.648438 129.898438 C 23.527344 129.898438 20.972656 132.449219 20.972656 135.570312 L 20.972656 175.273438 L 17.128906 175.273438 C 14.476562 175.273438 12.175781 177.105469 11.585938 179.695312 C 11.160156 181.582031 1.464844 226.335938 28.808594 263.71875 C 48.621094 290.800781 82.425781 306.585938 129.273438 310.613281 C 135.414062 311.144531 141.34375 311.398438 147.128906 311.398438 C 260.246094 311.398438 305.605469 214.5625 314.371094 192.710938 C 358.855469 196.265625 372.269531 160.53125 372.40625 160.164062 C 373.203125 157.957031 372.546875 155.480469 370.765625 153.949219 C 353.296875 138.917969 336.09375 138.648438 324.257812 142.328125 C 325.453125 116.34375 298.175781 97.726562 296.839844 96.832031 C 295.585938 95.984375 294.042969 95.675781 292.574219 95.976562 C 291.09375 96.273438 289.796875 97.132812 288.960938 98.394531 C 265.773438 133.316406 275.078125 158.71875 280.660156 168.648438 C 271.695312 175.460938 260.117188 175.289062 259.828125 175.273438 L 259.273438 175.273438 L 259.273438 135.570312 C 259.273438 132.449219 256.71875 129.898438 253.601562 129.898438 L 213.882812 129.898438 L 213.882812 44.820312 C 213.882812 41.699219 211.328125 39.148438 208.210938 39.148438 Z M 168.492188 50.492188 L 202.535156 50.492188 L 202.535156 84.523438 L 168.492188 84.523438 Z M 77.710938 95.867188 L 157.144531 95.867188 L 157.144531 129.898438 L 123.101562 129.898438 L 123.101562 112.882812 C 123.101562 109.753906 120.558594 107.210938 117.429688 107.210938 C 114.296875 107.210938 111.753906 109.753906 111.753906 112.882812 L 111.753906 129.898438 L 77.710938 129.898438 Z M 168.492188 95.867188 L 202.535156 95.867188 L 202.535156 175.273438 L 168.492188 175.273438 L 168.492188 141.242188 L 185.515625 141.242188 C 188.632812 141.242188 191.1875 138.691406 191.1875 135.570312 C 191.1875 132.449219 188.632812 129.898438 185.515625 129.898438 L 168.492188 129.898438 Z M 295.191406 109.871094 C 303.207031 116.753906 318.117188 132.601562 311.003906 150.480469 C 310.0625 152.847656 310.828125 155.539062 312.855469 157.082031 C 314.878906 158.625 317.710938 158.609375 319.734375 157.074219 C 320.507812 156.488281 338.015625 143.601562 360.039062 159.886719 C 355.710938 167.707031 342.386719 185.140625 311.390625 180.988281 C 308.652344 180.621094 306.09375 182.242188 305.242188 184.832031 C 304.84375 186.042969 265.871094 300.054688 146.996094 300.042969 C 141.585938 300.039062 135.992188 299.804688 130.25 299.3125 C 86.867188 295.582031 55.84375 281.382812 38.039062 257.117188 C 18.394531 230.34375 20.394531 198.203125 21.9375 186.617188 L 253.601562 186.617188 C 253.640625 186.617188 253.671875 186.597656 253.710938 186.59375 L 259.660156 186.59375 C 260.496094 186.628906 279.574219 187.046875 292.21875 173.445312 C 294.160156 171.363281 294.246094 168.164062 292.429688 165.96875 C 292.242188 165.746094 275.179688 144.421875 295.191406 109.871094 Z M 32.320312 141.242188 L 66.363281 141.242188 L 66.363281 175.273438 L 32.320312 175.273438 Z M 77.710938 141.242188 L 111.753906 141.242188 L 111.753906 175.273438 L 77.710938 175.273438 Z M 123.101562 141.242188 L 157.144531 141.242188 L 157.144531 175.273438 L 123.101562 175.273438 Z M 213.882812 141.242188 L 247.925781 141.242188 L 247.925781 175.273438 L 213.882812 175.273438 Z M 80.546875 214.976562 C 79.617188 214.976562 78.695312 215.066406 77.78125 215.25 C 76.867188 215.429688 75.980469 215.699219 75.121094 216.054688 C 74.257812 216.414062 73.441406 216.847656 72.667969 217.367188 C 71.894531 217.882812 71.175781 218.472656 70.519531 219.128906 C 69.859375 219.789062 69.273438 220.503906 68.753906 221.277344 C 68.238281 222.050781 67.800781 222.871094 67.445312 223.730469 C 67.085938 224.589844 66.816406 225.476562 66.636719 226.390625 C 66.453125 227.304688 66.363281 228.226562 66.363281 229.15625 C 66.363281 230.085938 66.453125 231.007812 66.636719 231.921875 C 66.816406 232.835938 67.085938 233.722656 67.445312 234.582031 C 67.800781 235.441406 68.238281 236.261719 68.753906 237.035156 C 69.273438 237.808594 69.859375 238.523438 70.519531 239.183594 C 71.175781 239.839844 71.894531 240.429688 72.667969 240.945312 C 73.441406 241.464844 74.257812 241.898438 75.121094 242.257812 C 75.980469 242.613281 76.867188 242.882812 77.78125 243.0625 C 78.695312 243.246094 79.617188 243.335938 80.546875 243.335938 C 81.480469 243.335938 82.402344 243.246094 83.316406 243.0625 C 84.230469 242.882812 85.117188 242.613281 85.976562 242.257812 C 86.835938 241.898438 87.65625 241.464844 88.429688 240.945312 C 89.203125 240.429688 89.917969 239.839844 90.578125 239.183594 C 91.238281 238.523438 91.824219 237.808594 92.34375 237.035156 C 92.859375 236.261719 93.296875 235.441406 93.652344 234.582031 C 94.007812 233.722656 94.277344 232.835938 94.460938 231.921875 C 94.640625 231.007812 94.734375 230.085938 94.734375 229.15625 C 94.734375 228.226562 94.640625 227.304688 94.460938 226.390625 C 94.277344 225.476562 94.007812 224.589844 93.652344 223.730469 C 93.296875 222.871094 92.859375 222.050781 92.34375 221.277344 C 91.824219 220.503906 91.238281 219.789062 90.578125 219.128906 C 89.917969 218.472656 89.203125 217.882812 88.429688 217.367188 C 87.65625 216.847656 86.835938 216.414062 85.976562 216.054688 C 85.117188 215.699219 84.230469 215.429688 83.316406 215.25 C 82.402344 215.066406 81.480469 214.976562 80.546875 214.976562 Z M 249.554688 217.867188 C 248.109375 217.988281 246.699219 218.660156 245.6875 219.851562 C 243.664062 222.246094 243.964844 225.824219 246.351562 227.847656 L 254.996094 235.195312 C 256.0625 236.09375 257.363281 236.535156 258.664062 236.535156 C 260.277344 236.535156 261.867188 235.851562 262.996094 234.527344 C 265.023438 232.136719 264.730469 228.554688 262.34375 226.53125 L 253.6875 219.199219 C 252.492188 218.183594 251.003906 217.746094 249.554688 217.867188 Z M 230.960938 237.144531 C 229.515625 236.992188 228.019531 237.398438 226.804688 238.382812 C 224.371094 240.351562 224 243.914062 225.972656 246.347656 L 233.109375 255.167969 C 234.226562 256.558594 235.871094 257.273438 237.519531 257.273438 C 238.773438 257.273438 240.035156 256.855469 241.089844 255.996094 C 243.523438 254.03125 243.894531 250.457031 241.921875 248.023438 L 234.785156 239.214844 C 233.796875 238 232.402344 237.292969 230.960938 237.144531 Z M 207.046875 252.066406 C 206.3125 252.117188 205.570312 252.316406 204.875 252.675781 C 202.078125 254.097656 200.972656 257.515625 202.390625 260.308594 L 207.542969 270.421875 C 208.542969 272.382812 210.53125 273.511719 212.597656 273.511719 C 213.464844 273.511719 214.347656 273.316406 215.167969 272.902344 C 217.964844 271.480469 219.070312 268.0625 217.652344 265.269531 L 212.507812 255.167969 C 211.441406 253.074219 209.25 251.910156 207.046875 252.066406 Z M 182.710938 261.746094 C 181.980469 261.640625 181.21875 261.675781 180.460938 261.871094 C 177.425781 262.652344 175.609375 265.738281 176.394531 268.769531 L 179.230469 279.761719 C 179.894531 282.316406 182.191406 284.015625 184.714844 284.015625 C 185.1875 284.015625 185.664062 283.960938 186.132812 283.835938 C 189.171875 283.054688 190.996094 279.957031 190.210938 276.925781 L 187.375 265.933594 C 186.789062 263.664062 184.898438 262.074219 182.710938 261.746094 Z M 154.484375 265.746094 C 151.351562 265.90625 148.953125 268.566406 149.109375 271.695312 L 149.6875 283.027344 C 149.839844 286.058594 152.347656 288.410156 155.351562 288.410156 C 155.445312 288.410156 155.542969 288.402344 155.636719 288.402344 C 158.769531 288.242188 161.183594 285.582031 161.023438 282.453125 L 160.4375 271.121094 C 160.277344 267.988281 157.5625 265.605469 154.484375 265.746094 Z M 154.484375 265.746094 " fill-opacity="1" fill-rule="nonzero"/></g></svg>