<svg height="800" width="800" viewBox="0 0 440.558 440.558" xml:space="preserve" xmlns="http://www.w3.org/2000/svg"><path d="M369.894 332.842c-10.935-32.603-7.119-68.018 8.136-92.436 11.738-18.789 27.073-26.658 27.215-26.73a5.001 5.001 0 0 0-2.005-9.474c-25.136-1.101-47.288 10.525-64.057 33.637a120.402 120.402 0 0 0-7.575 11.884c4.524-71.585 40.077-117.529 40.473-118.031a5 5 0 0 0-5.17-7.943c-42.862 11.067-68.467 67.392-80.383 101.943-6.287-54.052-26.563-74.909-27.556-75.898a4.999 4.999 0 0 0-8.165 5.416c8.229 20.33 1.509 65.935-4.75 97.516-5.757-51.809-18.768-70.109-19.423-71.001a5 5 0 0 0-9.024 2.762c-.906 22.573-10.888 50.064-17.893 66.802-3.631-37.56 3.037-93.151 24.909-115.452a4.999 4.999 0 0 0-3.2-8.488c-.599-.044-14.831-.939-30.172 12.1-15.056 12.795-25.774 33.915-32.003 62.975-10.039-41.707-25.785-71.541-46.96-88.882-19.915-16.31-37.29-14.955-38.019-14.887a5 5 0 0 0-2.655 8.901c28.446 22.513 45.388 90.571 53.196 157.801-14.021-29.961-32.042-45.68-46.5-53.902-21.858-12.432-40.418-11.015-41.199-10.951a5.003 5.003 0 0 0-4.354 3.508 4.999 4.999 0 0 0 1.619 5.351c31.612 25.762 49.684 55.596 52.261 86.277 1.471 17.508-1.85 30.324-3.899 35.842-.82 1.222-1.2 2.351-1.167 3.391 61.062.645 206.23 2.437 285.268.137a54.284 54.284 0 0 0 3.052-2.168zm-273.237-37.42c-1.648-21.163-10.898-51.948-44.13-83.434 5.881 1.33 13.108 3.758 20.844 8.157 25.938 14.751 45.042 44.82 55.248 86.957a5.007 5.007 0 0 0 5.61 3.767 5.001 5.001 0 0 0 4.239-5.263c-2.281-35.602-12.273-147.086-49.24-194.225 18.759 7.132 51.274 32.291 65.701 120.38a5.014 5.014 0 0 0 5.079 4.189 5 5 0 0 0 4.828-4.476c5.307-50.523 20.449-73.471 32.218-83.824 4.247-3.736 8.326-6.127 11.866-7.654-20.561 33.533-24.055 95.76-16.462 129.857a5 5 0 0 0 9.353 1.148c.838-1.676 17.583-35.479 23.672-68.277 5.148 14.609 11.526 41.076 12.973 84.64a5 5 0 0 0 9.835 1.096c.865-3.316 17.266-66.869 16.176-110.142 6.542 15.408 13.299 39.867 13.863 75.776a5 5 0 0 0 9.868 1.057c.228-.974 21.194-88.787 66.7-115.617-3.984 6.703-8.806 15.7-13.559 26.768-10.144 23.617-21.85 61.55-20.012 108.137a5 5 0 0 0 9.799 1.195c.047-.162 4.869-16.464 16.313-32.144 10.787-14.78 23.536-24.025 38.051-27.632a93.575 93.575 0 0 0-15.625 18.747c-11.605 18.316-22.375 49.847-9.819 97.355H92.7c2.372-7.482 5.219-20.33 3.957-36.538z"/></svg>
