<svg xmlns="http://www.w3.org/2000/svg" width="500" height="500" version="1.0" viewBox="0 0 375 375"><defs><clipPath id="a"><path d="M.31 0h374.25v7.38H.31Zm0 0"/></clipPath><clipPath id="b"><path d="m374.5 0-9.55 254.52a34.33 34.33 0 0 1-34.3 33.04c-308.8-.2-289.97 1.34-299.5-2.58A34.34 34.34 0 0 1 9.9 254.52L.35 0Zm0 0"/></clipPath><clipPath id="c"><path d="M.31 7.17h374.25v9.43H.31Zm0 0"/></clipPath><clipPath id="d"><path d="m374.5 0-9.55 254.52a34.33 34.33 0 0 1-34.3 33.04c-308.8-.2-289.97 1.34-299.5-2.58A34.34 34.34 0 0 1 9.9 254.52L.35 0Zm0 0"/></clipPath><clipPath id="e"><path d="M.31 16.4h374.25V26H.31Zm0 0"/></clipPath><clipPath id="f"><path d="m374.5 0-9.55 254.52a34.33 34.33 0 0 1-34.3 33.04c-308.8-.2-289.97 1.34-299.5-2.58A34.34 34.34 0 0 1 9.9 254.52L.35 0Zm0 0"/></clipPath><clipPath id="g"><path d="M.31 25.82h374.25v9.43H.31Zm0 0"/></clipPath><clipPath id="h"><path d="m374.5 0-9.55 254.52a34.33 34.33 0 0 1-34.3 33.04c-308.8-.2-289.97 1.34-299.5-2.58A34.34 34.34 0 0 1 9.9 254.52L.35 0Zm0 0"/></clipPath><clipPath id="i"><path d="M.31 35.04h374.25v9.43H.31Zm0 0"/></clipPath><clipPath id="j"><path d="m374.5 0-9.55 254.52a34.33 34.33 0 0 1-34.3 33.04c-308.8-.2-289.97 1.34-299.5-2.58A34.34 34.34 0 0 1 9.9 254.52L.35 0Zm0 0"/></clipPath><clipPath id="k"><path d="M.31 44.26h374.25v9.43H.31Zm0 0"/></clipPath><clipPath id="l"><path d="m374.5 0-9.55 254.52a34.33 34.33 0 0 1-34.3 33.04c-308.8-.2-289.97 1.34-299.5-2.58A34.34 34.34 0 0 1 9.9 254.52L.35 0Zm0 0"/></clipPath><clipPath id="m"><path d="M.31 53.48h374.25v9.43H.31Zm0 0"/></clipPath><clipPath id="n"><path d="m374.5 0-9.55 254.52a34.33 34.33 0 0 1-34.3 33.04c-308.8-.2-289.97 1.34-299.5-2.58A34.34 34.34 0 0 1 9.9 254.52L.35 0Zm0 0"/></clipPath><clipPath id="o"><path d="M.31 62.7h374.25v9.43H.31Zm0 0"/></clipPath><clipPath id="p"><path d="m374.5 0-9.55 254.52a34.33 34.33 0 0 1-34.3 33.04c-308.8-.2-289.97 1.34-299.5-2.58A34.34 34.34 0 0 1 9.9 254.52L.35 0Zm0 0"/></clipPath><clipPath id="q"><path d="M.31 72h374.25v9.35H.31Zm0 0"/></clipPath><clipPath id="r"><path d="m374.5 0-9.55 254.52a34.33 34.33 0 0 1-34.3 33.04c-308.8-.2-289.97 1.34-299.5-2.58A34.34 34.34 0 0 1 9.9 254.52L.35 0Zm0 0"/></clipPath><clipPath id="s"><path d="M.31 81.15h374.25v9.42H.31Zm0 0"/></clipPath><clipPath id="t"><path d="m374.5 0-9.55 254.52a34.33 34.33 0 0 1-34.3 33.04c-308.8-.2-289.97 1.34-299.5-2.58A34.34 34.34 0 0 1 9.9 254.52L.35 0Zm0 0"/></clipPath><clipPath id="u"><path d="M.31 90.37h374.25V100H.31Zm0 0"/></clipPath><clipPath id="v"><path d="m374.5 0-9.55 254.52a34.33 34.33 0 0 1-34.3 33.04c-308.8-.2-289.97 1.34-299.5-2.58A34.34 34.34 0 0 1 9.9 254.52L.35 0Zm0 0"/></clipPath><clipPath id="w"><path d="M.31 99.8h374.25v9.42H.31Zm0 0"/></clipPath><clipPath id="x"><path d="m374.5 0-9.55 254.52a34.33 34.33 0 0 1-34.3 33.04c-308.8-.2-289.97 1.34-299.5-2.58A34.34 34.34 0 0 1 9.9 254.52L.35 0Zm0 0"/></clipPath><clipPath id="y"><path d="M.31 109.02h374.25v9.42H.31Zm0 0"/></clipPath><clipPath id="z"><path d="m374.5 0-9.55 254.52a34.33 34.33 0 0 1-34.3 33.04c-308.8-.2-289.97 1.34-299.5-2.58A34.34 34.34 0 0 1 9.9 254.52L.35 0Zm0 0"/></clipPath><clipPath id="A"><path d="M.31 118.24h374.25v9.42H.31Zm0 0"/></clipPath><clipPath id="B"><path d="m374.5 0-9.55 254.52a34.33 34.33 0 0 1-34.3 33.04c-308.8-.2-289.97 1.34-299.5-2.58A34.34 34.34 0 0 1 9.9 254.52L.35 0Zm0 0"/></clipPath><clipPath id="C"><path d="M.31 127.46h374.25v9.43H.31Zm0 0"/></clipPath><clipPath id="D"><path d="m374.5 0-9.55 254.52a34.33 34.33 0 0 1-34.3 33.04c-308.8-.2-289.97 1.34-299.5-2.58A34.34 34.34 0 0 1 9.9 254.52L.35 0Zm0 0"/></clipPath><clipPath id="E"><path d="M.31 136.68h374.25v9.43H.31Zm0 0"/></clipPath><clipPath id="F"><path d="m374.5 0-9.55 254.52a34.33 34.33 0 0 1-34.3 33.04c-308.8-.2-289.97 1.34-299.5-2.58A34.34 34.34 0 0 1 9.9 254.52L.35 0Zm0 0"/></clipPath><clipPath id="G"><path d="M.31 146h374.25v9.33H.31Zm0 0"/></clipPath><clipPath id="H"><path d="m374.5 0-9.55 254.52a34.33 34.33 0 0 1-34.3 33.04c-308.8-.2-289.97 1.34-299.5-2.58A34.34 34.34 0 0 1 9.9 254.52L.35 0Zm0 0"/></clipPath><clipPath id="I"><path d="M.31 155.12h374.25v9.63H.31Zm0 0"/></clipPath><clipPath id="J"><path d="m374.5 0-9.55 254.52a34.33 34.33 0 0 1-34.3 33.04c-308.8-.2-289.97 1.34-299.5-2.58A34.34 34.34 0 0 1 9.9 254.52L.35 0Zm0 0"/></clipPath><clipPath id="K"><path d="M.31 164.55h374.25v9.43H.31Zm0 0"/></clipPath><clipPath id="L"><path d="m374.5 0-9.55 254.52a34.33 34.33 0 0 1-34.3 33.04c-308.8-.2-289.97 1.34-299.5-2.58A34.34 34.34 0 0 1 9.9 254.52L.35 0Zm0 0"/></clipPath><clipPath id="M"><path d="M.31 173.77h374.25v9.43H.31Zm0 0"/></clipPath><clipPath id="N"><path d="m374.5 0-9.55 254.52a34.33 34.33 0 0 1-34.3 33.04c-308.8-.2-289.97 1.34-299.5-2.58A34.34 34.34 0 0 1 9.9 254.52L.35 0Zm0 0"/></clipPath><clipPath id="O"><path d="M.31 183h374.25v9.42H.31Zm0 0"/></clipPath><clipPath id="P"><path d="m374.5 0-9.55 254.52a34.33 34.33 0 0 1-34.3 33.04c-308.8-.2-289.97 1.34-299.5-2.58A34.34 34.34 0 0 1 9.9 254.52L.35 0Zm0 0"/></clipPath><clipPath id="Q"><path d="M.31 192.21h374.25v9.43H.31Zm0 0"/></clipPath><clipPath id="R"><path d="m374.5 0-9.55 254.52a34.33 34.33 0 0 1-34.3 33.04c-308.8-.2-289.97 1.34-299.5-2.58A34.34 34.34 0 0 1 9.9 254.52L.35 0Zm0 0"/></clipPath><clipPath id="S"><path d="M.31 201.43h374.25v9.43H.31Zm0 0"/></clipPath><clipPath id="T"><path d="m374.5 0-9.55 254.52a34.33 34.33 0 0 1-34.3 33.04c-308.8-.2-289.97 1.34-299.5-2.58A34.34 34.34 0 0 1 9.9 254.52L.35 0Zm0 0"/></clipPath><clipPath id="U"><path d="M.31 210.66h374.25v9.42H.31Zm0 0"/></clipPath><clipPath id="V"><path d="m374.5 0-9.55 254.52a34.33 34.33 0 0 1-34.3 33.04c-308.8-.2-289.97 1.34-299.5-2.58A34.34 34.34 0 0 1 9.9 254.52L.35 0Zm0 0"/></clipPath><clipPath id="W"><path d="M.31 220h374.25v9.3H.31Zm0 0"/></clipPath><clipPath id="X"><path d="m374.5 0-9.55 254.52a34.33 34.33 0 0 1-34.3 33.04c-308.8-.2-289.97 1.34-299.5-2.58A34.34 34.34 0 0 1 9.9 254.52L.35 0Zm0 0"/></clipPath><clipPath id="Y"><path d="M.31 229.1h374.25v9.63H.31Zm0 0"/></clipPath><clipPath id="Z"><path d="m374.5 0-9.55 254.52a34.33 34.33 0 0 1-34.3 33.04c-308.8-.2-289.97 1.34-299.5-2.58A34.34 34.34 0 0 1 9.9 254.52L.35 0Zm0 0"/></clipPath><clipPath id="aa"><path d="M.31 238.52h374.25v9.43H.31Zm0 0"/></clipPath><clipPath id="ab"><path d="m374.5 0-9.55 254.52a34.33 34.33 0 0 1-34.3 33.04c-308.8-.2-289.97 1.34-299.5-2.58A34.34 34.34 0 0 1 9.9 254.52L.35 0Zm0 0"/></clipPath><clipPath id="ac"><path d="M.31 247.75h374.25v9.42H.31Zm0 0"/></clipPath><clipPath id="ad"><path d="m374.5 0-9.55 254.52a34.33 34.33 0 0 1-34.3 33.04c-308.8-.2-289.97 1.34-299.5-2.58A34.34 34.34 0 0 1 9.9 254.52L.35 0Zm0 0"/></clipPath><clipPath id="ae"><path d="M.31 257h374.25v9.4H.31Zm0 0"/></clipPath><clipPath id="af"><path d="m374.5 0-9.55 254.52a34.33 34.33 0 0 1-34.3 33.04c-308.8-.2-289.97 1.34-299.5-2.58A34.34 34.34 0 0 1 9.9 254.52L.35 0Zm0 0"/></clipPath><clipPath id="ag"><path d="M.31 266.19h374.25v9.42H.31Zm0 0"/></clipPath><clipPath id="ah"><path d="m374.5 0-9.55 254.52a34.33 34.33 0 0 1-34.3 33.04c-308.8-.2-289.97 1.34-299.5-2.58A34.34 34.34 0 0 1 9.9 254.52L.35 0Zm0 0"/></clipPath><clipPath id="ai"><path d="M.31 275.41h374.25v9.43H.31Zm0 0"/></clipPath><clipPath id="aj"><path d="m374.5 0-9.55 254.52a34.33 34.33 0 0 1-34.3 33.04c-308.8-.2-289.97 1.34-299.5-2.58A34.34 34.34 0 0 1 9.9 254.52L.35 0Zm0 0"/></clipPath><clipPath id="ak"><path d="M.31 284.63h374.25v3.07H.31Zm0 0"/></clipPath><clipPath id="al"><path d="m374.5 0-9.55 254.52a34.33 34.33 0 0 1-34.3 33.04c-308.8-.2-289.97 1.34-299.5-2.58A34.34 34.34 0 0 1 9.9 254.52L.35 0Zm0 0"/></clipPath></defs><g clip-path="url(#a)"><g clip-path="url(#b)"><path fill="#d5ddff" d="M374.5 7.34H.36V0H374.5v7.34"/></g></g><g clip-path="url(#c)"><g clip-path="url(#d)"><path fill="#d6deff" d="M374.5 16.59H.36V7.34H374.5v9.25"/></g></g><g clip-path="url(#e)"><g clip-path="url(#f)"><path fill="#d7deff" d="M374.5 25.84H.36v-9.25H374.5v9.25"/></g></g><g clip-path="url(#g)"><g clip-path="url(#h)"><path fill="#d8dfff" d="M374.5 35.09H.36v-9.25H374.5v9.25"/></g></g><g clip-path="url(#i)"><g clip-path="url(#j)"><path fill="#d9e0ff" d="M374.5 44.33H.36V35.1H374.5v9.24"/></g></g><g clip-path="url(#k)"><g clip-path="url(#l)"><path fill="#dae1ff" d="M374.5 53.58H.36v-9.25H374.5v9.25"/></g></g><g clip-path="url(#m)"><g clip-path="url(#n)"><path fill="#dbe2ff" d="M374.5 62.83H.36v-9.25H374.5v9.25"/></g></g><g clip-path="url(#o)"><g clip-path="url(#p)"><path fill="#dce3ff" d="M374.5 72.07H.36v-9.24H374.5v9.24"/></g></g><g clip-path="url(#q)"><g clip-path="url(#r)"><path fill="#dde3ff" d="M374.5 81.32H.36v-9.25H374.5v9.25"/></g></g><g clip-path="url(#s)"><g clip-path="url(#t)"><path fill="#dee4ff" d="M374.5 90.57H.36v-9.25H374.5v9.25"/></g></g><g clip-path="url(#u)"><g clip-path="url(#v)"><path fill="#dfe5ff" d="M374.5 99.82H.36v-9.25H374.5v9.25"/></g></g><g clip-path="url(#w)"><g clip-path="url(#x)"><path fill="#e0e6ff" d="M374.5 109.07H.36v-9.25H374.5v9.25"/></g></g><g clip-path="url(#y)"><g clip-path="url(#z)"><path fill="#e1e7ff" d="M374.5 118.31H.36v-9.24H374.5v9.24"/></g></g><g clip-path="url(#A)"><g clip-path="url(#B)"><path fill="#e2e7ff" d="M374.5 127.56H.36v-9.25H374.5v9.25"/></g></g><g clip-path="url(#C)"><g clip-path="url(#D)"><path fill="#e3e8ff" d="M374.5 136.8H.36v-9.24H374.5v9.25"/></g></g><g clip-path="url(#E)"><g clip-path="url(#F)"><path fill="#e5e9ff" d="M374.5 146.06H.36v-9.25H374.5v9.25"/></g></g><g clip-path="url(#G)"><g clip-path="url(#H)"><path fill="#e6eaff" d="M374.5 155.3H.36v-9.24H374.5v9.24"/></g></g><g clip-path="url(#I)"><g clip-path="url(#J)"><path fill="#e7ebff" d="M374.5 164.55H.36v-9.25H374.5v9.25"/></g></g><g clip-path="url(#K)"><g clip-path="url(#L)"><path fill="#e8ebff" d="M374.5 173.8H.36v-9.25H374.5v9.25"/></g></g><g clip-path="url(#M)"><g clip-path="url(#N)"><path fill="#e9ecff" d="M374.5 183.05H.36v-9.25H374.5v9.25"/></g></g><g clip-path="url(#O)"><g clip-path="url(#P)"><path fill="#eaedff" d="M374.5 192.3H.36v-9.25H374.5v9.24"/></g></g><g clip-path="url(#Q)"><g clip-path="url(#R)"><path fill="#ebeeff" d="M374.5 201.54H.36v-9.25H374.5v9.25"/></g></g><g clip-path="url(#S)"><g clip-path="url(#T)"><path fill="#ecefff" d="M374.5 210.79H.36v-9.25H374.5v9.25"/></g></g><g clip-path="url(#U)"><g clip-path="url(#V)"><path fill="#edf0ff" d="M374.5 220.04H.36v-9.25H374.5v9.25"/></g></g><g clip-path="url(#W)"><g clip-path="url(#X)"><path fill="#eef0ff" d="M374.5 229.29H.36v-9.25H374.5v9.25"/></g></g><g clip-path="url(#Y)"><g clip-path="url(#Z)"><path fill="#eff1ff" d="M374.5 238.54H.36v-9.25H374.5v9.25"/></g></g><g clip-path="url(#aa)"><g clip-path="url(#ab)"><path fill="#f0f2ff" d="M374.5 247.78H.36v-9.24H374.5v9.24"/></g></g><g clip-path="url(#ac)"><g clip-path="url(#ad)"><path fill="#f1f3ff" d="M374.5 257.03H.36v-9.25H374.5v9.25"/></g></g><g clip-path="url(#ae)"><g clip-path="url(#af)"><path fill="#f2f4ff" d="M374.5 266.28H.36v-9.25H374.5v9.25"/></g></g><g clip-path="url(#ag)"><g clip-path="url(#ah)"><path fill="#f3f4ff" d="M374.5 275.52H.36v-9.24H374.5v9.24"/></g></g><g clip-path="url(#ai)"><g clip-path="url(#aj)"><path fill="#f4f5ff" d="M374.5 284.77H.36v-9.25H374.5v9.25"/></g></g><g clip-path="url(#ak)"><g clip-path="url(#al)"><path fill="#f5f6ff" d="M.35 284.77H374.5v4.13H.35v-4.13"/></g></g><path fill="#fff" d="M319.94 303.9H206.05V23.82h113.9V303.9M196.84 303.9h-48.63V23.82h48.63V303.9M41.71 128.41h73.56V24.27H41.71Zm74.01.9H41.26a.45.45 0 0 1-.45-.45V23.82c0-.25.2-.45.45-.45h74.46c.25 0 .45.2.45.45v105.04c0 .25-.2.45-.45.45"/><path fill="#a3b4ff" d="M48.25 121.87h60.48V30.82H48.25v91.05"/><path fill="#fff" d="m108.73 79.35-8.78-8.2-4.07 5.19-25.72-33.4-21.9 31.63v47.3h60.47V79.35"/><path fill="#eaeeff" d="m70.16 42.93 14.6 45.09-9.06-3.78 10.57 37.63H48.25v-47.3l21.91-31.64M99.95 71.14l-4.07 5.2 9.78 12.7Zm0 0"/><path fill="#fff" d="M339.04 334.48c7.64-22 7.01-37.78 4.92-48.27-2.07-10.3-5.42-14.82-4.8-26.34.67-12.4 5.07-16.6 3.3-28.25-1.16-7.53-3.2-7.07-4.62-16.8-.96-6.55-.68-11.1-3.91-16.17-1.62-2.53-3.73-5.86-6.4-5.61-4.47.4-4.97 10.27-13.7 25.19-5.59 9.52-7.66 9.38-9.58 15.57-2.11 6.78-.46 9.61-.16 21.75.39 15.07-2.06 14.38-1.15 24.83 1 11.55 3.8 10.17 6.33 25.97 1.9 11.86-9.9 15.03-6.8 23.13a264.88 264.88 0 0 0 5.87 13.32l10.55-.32 20.15-8"/><path fill="#728be8" d="M339.04 334.48Zm-11.24-141h-.24c-2.2.2-3.43 3.29-5.47 8.38-1.67 4.2-3.97 9.93-7.88 16.6-2.45 4.19-4.21 6.49-5.62 8.33-1.78 2.33-2.85 3.74-3.91 7.14-1.36 4.37-1.13 7.02-.72 11.84.21 2.5.48 5.6.59 9.77.2 7.7-.34 11.24-.8 14.37a37.1 37.1 0 0 0-.36 10.43c.5 5.7 1.4 8.14 2.56 11.24 1.17 3.15 2.5 6.72 3.77 14.7 1.02 6.34-1.76 10.24-4.2 13.68-2.16 3.06-4.04 5.69-2.63 9.36a257.81 257.81 0 0 0 5.73 13.02l10.18-.31 19.88-7.89c6.05-17.53 7.68-33.62 4.84-47.84-.69-3.4-1.5-6.12-2.29-8.77-1.57-5.32-2.94-9.91-2.52-17.68a61.54 61.54 0 0 1 2.09-12.48c1.2-4.82 2.23-8.99 1.2-15.68a26.43 26.43 0 0 0-2-7.05c-.9-2.21-1.84-4.5-2.6-9.75-.23-1.5-.38-2.89-.53-4.22-.5-4.44-.89-7.95-3.33-11.78-1.46-2.3-3.44-5.42-5.74-5.42Zm-19.46 149.78a.46.46 0 0 1-.41-.26c-.04-.09-4.11-8.72-5.89-13.36-1.57-4.12.53-7.07 2.75-10.2 2.34-3.3 5-7.04 4.04-13.03-1.26-7.88-2.58-11.4-3.73-14.52-1.13-3.03-2.1-5.66-2.6-11.47a38.3 38.3 0 0 1 .35-10.64c.47-3.1.99-6.6.8-14.21-.11-4.16-.38-7.25-.59-9.73-.4-4.76-.66-7.64.76-12.18 1.1-3.55 2.28-5.09 4.06-7.42 1.39-1.83 3.13-4.1 5.55-8.24 3.88-6.61 6.16-12.31 7.83-16.47 2.17-5.42 3.47-8.69 6.22-8.94 2.95-.28 5.19 3.25 6.82 5.81 2.56 4.01 2.96 7.61 3.46 12.17.15 1.32.3 2.7.52 4.18.76 5.16 1.68 7.39 2.56 9.55.78 1.9 1.52 3.7 2.06 7.25 1.05 6.88 0 11.13-1.23 16.04-.87 3.52-1.78 7.17-2.06 12.3-.41 7.62.93 12.15 2.5 17.38.78 2.66 1.6 5.42 2.29 8.86 2.89 14.42 1.23 30.74-4.94 48.5a.46.46 0 0 1-.26.27l-20.15 8a.4.4 0 0 1-.15.03l-10.55.33h-.01"/><path fill="#728be8" d="M317.92 318.1a.45.45 0 0 1-.45-.44c-1.28-57.2.86-68.8 3.83-84.85l.2-1.05c3.04-16.53 4.54-28.58 4.55-28.7a.45.45 0 0 1 .5-.4c.25.04.43.27.4.51-.02.12-1.52 12.2-4.57 28.76l-.2 1.05c-2.95 16-5.08 27.55-3.8 84.66 0 .25-.2.45-.45.46h-.01M344.63 352.1c1.3-3.87 3.1-9.8 4.44-17.18 2.12-11.62.98-15.2 2.16-23.36 2.38-16.6 9.02-15.55 13.2-33.63 3.78-16.3-1.8-16.43 2.7-30.33 1.25-3.83 4.35-12.1 1.21-19.82-.86-2.1-1.57-2.66-2.21-2.76-3.1-.48-5.31 9.5-12.8 20.48-6.56 9.62-8.63 7.48-12.6 14.71-4.87 8.84-2.6 13.54-6.01 27.03-3.1 12.24-5.51 10.57-8.4 21.32-5.73 21.24-.48 43.33-.47 43.54h18.77"/><path fill="#fff" d="M329.8 331.23h-.03a.46.46 0 0 1-.42-.49c1.8-25.02 14.47-59.53 22.06-71.38 7.4-11.52 13.1-29.44 13.16-29.62a.45.45 0 0 1 .57-.3c.24.08.36.34.29.58-.06.18-5.8 18.2-13.26 29.83-7.54 11.77-20.13 46.07-21.92 70.96a.45.45 0 0 1-.45.42"/><path fill="#728be8" d="M295.1 328.2c1.58-6.4-5-13.58-6.27-19.23-2.25-9.94-1.14-18.72-2.4-25.43-1.02-5.4-2.18-2.56-9.3-18.31 0 0-3.9-8.58-4.54-16.17-.18-2.11-.19-3.36-.19-3.36-.03-1.8.1-2.7-.1-5.14-.68-9.1-3.57-12.46-1.2-16.62.53-.95 1.11-1.96 2.24-2.32 2.79-.9 6.4 2.84 13.66 11.83 8.88 10.99 13.32 16.48 14.14 19.16 1.93 6.35 2.2 15.04 3.98 21.2.24.83 1.07 3.74 2.69 6.73 1.58 2.93 2.65 4.35 3.66 5.94 2.66 4.2 1.7 5.78 4.54 16.95 1.74 6.86 2.36 7.27 2.81 11.1a40.7 40.7 0 0 1-.28 11.41l-23.45 2.26"/><path fill="#fff" d="M309.53 307.33a.44.44 0 0 1-.44-.37c-6.57-35.83-31.46-74.92-31.7-75.31a.45.45 0 1 1 .75-.49c.25.4 25.24 39.63 31.84 75.64a.45.45 0 0 1-.37.52l-.08.01M298.93 374.55h44.71l3.99-31.39h-52.68l3.98 31.4"/><path fill="#728be8" d="M299.33 374.1h43.91l3.87-30.49h-51.65Zm44.31.9h-44.71a.45.45 0 0 1-.45-.4l-3.98-31.38a.45.45 0 0 1 .45-.5h52.68c.12 0 .25.05.33.14.09.1.13.23.11.36l-3.98 31.39a.45.45 0 0 1-.45.39"/><path fill="#fff" d="M292.45 343.16h57.67l2.92-23.09h-63.51l2.92 23.09"/><path fill="#728be8" d="M292.85 342.71h56.88l2.8-22.19h-62.5Zm57.27.9h-57.67a.45.45 0 0 1-.45-.4l-2.92-23.08a.45.45 0 0 1 .45-.5h63.51c.14 0 .26.05.34.14.09.1.13.23.11.36l-2.92 23.09a.45.45 0 0 1-.45.4"/><path fill="#728be8" d="m353.04 320.07-2.92 23.09h-2.5l-3.98 31.4-5.51-.01 2.04-28.7-39.7-2.69h40.74l1.27-23.09h10.56"/><path fill="#eaeeff" d="M269.18 309.82H70.25a5.58 5.58 0 0 0-5.2 7.6l11.1 28.55a12.2 12.2 0 0 0 11.37 7.8h164.4c5.03 0 9.56-3.1 11.38-7.8l11.08-28.54a5.58 5.58 0 0 0-5.2-7.6"/><path fill="#728be8" d="M70.25 310.27c-1.71 0-3.25.82-4.23 2.24a5.06 5.06 0 0 0-.54 4.75l11.08 28.55a11.69 11.69 0 0 0 10.96 7.5h164.4c4.89 0 9.19-2.94 10.96-7.5l11.08-28.55c.63-1.6.43-3.33-.55-4.75a5.06 5.06 0 0 0-4.23-2.24Zm181.67 43.95H87.52c-5.26 0-9.9-3.17-11.8-8.08l-11.09-28.55a6.05 6.05 0 0 1 5.62-8.22h198.93a6.02 6.02 0 0 1 5.62 8.22l-11.08 28.55a12.59 12.59 0 0 1-11.8 8.08"/><path fill="#eaeeff" d="m36.02 266.86-9.75 5.61a7.61 7.61 0 0 0-3.3 9.36L46 341.1a7.61 7.61 0 0 0 7.1 4.86h11.93a7.62 7.62 0 0 0 7.1-10.37l-25.2-64.9a7.61 7.61 0 0 0-10.9-3.84"/><path fill="#728be8" d="M36.02 266.86Zm3.8-.57c-1.24 0-2.48.32-3.57.96l-9.75 5.61a7.13 7.13 0 0 0-3.1 8.8l23.01 59.29a7.12 7.12 0 0 0 6.68 4.57h11.93c2.4 0 4.55-1.13 5.9-3.12a7.07 7.07 0 0 0 .77-6.63l-25.2-64.9a7.15 7.15 0 0 0-6.67-4.58Zm25.2 80.14H53.09a8.01 8.01 0 0 1-7.52-5.15l-23.02-59.29a8.02 8.02 0 0 1 3.5-9.9l9.74-5.62a8.06 8.06 0 0 1 11.55 4.07l25.2 64.9a8.06 8.06 0 0 1-7.52 10.99"/><path fill="#eaeeff" d="m303.41 266.86 9.75 5.61a7.62 7.62 0 0 1 3.3 9.36l-23.02 59.28a7.61 7.61 0 0 1-7.1 4.86h-11.92a7.61 7.61 0 0 1-7.1-10.37l25.2-64.9a7.62 7.62 0 0 1 10.89-3.84"/><path fill="#728be8" d="M299.61 266.3a7.13 7.13 0 0 0-6.67 4.56l-25.2 64.9a7.06 7.06 0 0 0 .77 6.64 7.05 7.05 0 0 0 5.9 3.12h11.93c2.98 0 5.6-1.8 6.68-4.57l23.02-59.28a7.13 7.13 0 0 0-3.1-8.8l-9.75-5.62a7.13 7.13 0 0 0-3.58-.96Zm-13.27 80.13h-11.92a8.06 8.06 0 0 1-7.52-11l25.2-64.9a8.06 8.06 0 0 1 11.54-4.06l9.75 5.61a8.02 8.02 0 0 1 3.49 9.91l-23.02 59.29a8.02 8.02 0 0 1-7.52 5.15"/><path fill="#eaeeff" d="M290.55 239.6H48.9a6.6 6.6 0 0 0-6.15 9l13.1 33.73a14.43 14.43 0 0 0 13.45 9.21h200.85c5.96 0 11.3-3.65 13.46-9.2l13.1-33.75a6.6 6.6 0 0 0-6.15-8.98"/><path fill="#728be8" d="M48.89 240.06c-2.06 0-3.91.98-5.07 2.67a6.06 6.06 0 0 0-.66 5.7l13.1 33.74a13.9 13.9 0 0 0 13.03 8.92h200.85a13.9 13.9 0 0 0 13.04-8.92l13.1-33.74c.74-1.92.5-4-.66-5.7a6.06 6.06 0 0 0-5.07-2.67ZM270.14 292H69.3a14.78 14.78 0 0 1-13.87-9.5l-13.1-33.74a7.05 7.05 0 0 1 6.57-9.6h241.66a7.03 7.03 0 0 1 6.57 9.6l-13.1 33.74a14.79 14.79 0 0 1-13.88 9.5"/><path fill="#eaeeff" d="m90.63 353.77 8.07 20.78h6.35l8.07-20.78h-22.5"/><path fill="#728be8" d="M99 374.1h5.75l7.71-19.88H91.3Zm6.05.9H98.7a.45.45 0 0 1-.42-.29l-8.07-20.78a.45.45 0 0 1 .42-.62h22.5a.45.45 0 0 1 .41.62l-8.07 20.78a.45.45 0 0 1-.42.29"/><path fill="#eaeeff" d="m226.31 353.77 8.07 20.78h6.36l8.07-20.78h-22.5"/><path fill="#728be8" d="M234.7 374.1h5.73l7.72-19.88h-21.18Zm6.04.9h-6.36a.45.45 0 0 1-.42-.29l-8.07-20.78a.45.45 0 0 1 .42-.62h22.5a.45.45 0 0 1 .42.62l-8.07 20.78a.46.46 0 0 1-.42.29M76.14 345.97l.3.72 114.16-14.9 11.96 8.01 5.42-5.46v-8.29H68.4l7.73 19.92"/><path fill="#728be8" d="M45.99 341.11a7.61 7.61 0 0 0 7.1 4.86h11.93a7.62 7.62 0 0 0 7.1-10.37l-3.71-9.55H40.14L46 341.11M246.4 360l2.41-6.23h-22.5l2.6 6.7 17.48-.48M108.9 364.67l4.22-10.9h-22.5l4.39 11.28 13.88-.38"/><path fill="#a3b4ff" d="m206.9 324.38 12.31 9.8-7.34 7.47-12.15-8.97 7.17-8.3"/><path fill="#465ebd" d="M206.53 338.07s-.92 2.17-.87 2.64c.05.47 5.02 9.13 5.02 9.13s-.36.92-.32 1.18c.04.25 2.22 2.68 2.22 2.68l38.2-22.16s-.75-2.15-1.66-1.9c0 0-2.4-1.76-2.9-2.03-.49-.27-9.53 2.86-11.32 3.12-1.78.27-15.83-1.78-17.2-1.46-1.36.32-6.69 9.67-6.69 9.67l-4.48-.87"/><path fill="#0e2e7d" d="M210.68 349.84s-.36.92-.32 1.18c.04.25 2.22 2.68 2.22 2.68l16.34-9.48-23.26-3.5c.05.46 5.02 9.12 5.02 9.12"/><path fill="#a3b4ff" d="m225.85 309.39 15.66.18-.5 9.46-14.22-.64-.94-9"/><path fill="#465ebd" d="M233.1 317.12s-.12 2.36.1 2.79c.2.42 7.8 6.87 7.8 6.87s-.01.99.11 1.21c.12.23 3 1.77 3 1.77l28.37-33.84s-1.43-1.77-2.2-1.22c0 0-2.86-.84-3.41-.93-.56-.09-8 5.94-9.58 6.8-1.6.85-15.5 3.7-16.67 4.48-1.18.76-3 11.37-3 11.37l-4.52.7"/><path fill="#0e2e7d" d="M241 326.78s-.01.99.11 1.21c.12.23 3 1.77 3 1.77l12.14-14.48-23.06 4.63c.2.42 7.82 6.87 7.82 6.87"/><path fill="#465ebd" d="m99.95 278.15 74.43-.07c3.23 12.25 4.36 19.63-4.31 24.32 0 0-66.08.42-70.12-24.25"/><path fill="#465ebd" d="M63.23 278.85S50.26 322.1 89.38 322.1h140.51s5.53.86 0-18.2L121.3 286.07l-21.35-7.92-36.72.7"/><path fill="#465ebd" d="M213.95 326.66c-9.6-13.5-20.91-30.26-29.6-40.15-4.16-4.72-6-8.43-9.97-8.43l-20.58 13.33 48.76 48.4c2.08 2.44 11.39-13.15 11.39-13.15"/><path fill="#0e2e7d" d="M63.23 278.85s-1.14 3.81-1.72 9.17l116.16-8.9-.05-.03c-.97-.65-2-1-3.24-1l-74.43.06-36.72.7M178.76 316.67a.44.44 0 0 1-.32-.13l-24.85-24.7-17.78-2.93a.45.45 0 0 1-.37-.52.44.44 0 0 1 .52-.37l17.91 2.94c.1.02.18.06.25.13l24.95 24.8a.46.46 0 0 1-.31.78M226.59 313.4l-21.95-.26a.46.46 0 0 1-.45-.46c0-.25.2-.43.46-.45l21.94.27a.45.45 0 0 1 0 .9"/><path fill="#0e2e7d" d="m174.84 312.78-83.3-1.01c-14.22.35-15.05-13.79-15.05-13.93a.45.45 0 0 1 .9-.05c.02.55.79 13.08 13.65 13.08h.5l83.3 1c.25 0 .45.21.45.46s-.2.45-.45.45"/><path fill="#a3b4ff" d="M50.8 203.29s21.88-1.44 30.7.75c8.81 2.17 20.55 15.81 25.8 23.54 5.27 7.72 18.59 27.37 18.59 27.37l46.94 9.07s6.96 9.32 1.55 14.06h-51.4s-7.39-.18-10.2-4.28l-6.67-9.75s4.95 9.4 5.39 11.11c.44 1.71-1.39 5.39-1.39 5.39s-29.08 20.74-48.94 12.56l-2.36-6.43s-4.57-1.71-8.01-8.6c-3.44-6.89 0-74.8 0-74.8"/><path fill="#0e2e7d" d="M75.52 151.59c1.7-.25 3.33.39 3.8 3.38a9.28 9.28 0 0 0-3.8-3.38Zm-.68-.3c-5.4-2.19-12.44.05-14.23 1.18-.76.48-2.07 1.27-3.61 2.25-.46-2.79-1.46-7.43-3.18-8.48-2.5-1.52-6.9 1.76-7.4 4.53-.49 2.78 1.28 2.87 1.28 2.87s-1.24 3.14 3.3 5.32c-2.62 2.1-4.77 4.34-4.95 6.16-.23 2.22.66 7.05 1.56 11.16a14.46 14.46 0 0 1-1.27-14.1s-4.33 7.27-.54 14.61v.01c.27.52.58 1.04.94 1.56 8.07 13.98-1.99 12.16-1.99 12.16 4.24.8 6.78.47 8.17-.5.2 2.68.26 7.7-1.7 10.25 0 0 4.03-3.33 3.88-10.54-.06-2.68-.4-3.57-.8-3.64-.09-.67-.26-1.37-.5-2.08l2.54.45 24.35-8.9s.2-2.81.39-5.93c0 0 2.83-21.7-6.24-18.35"/><path fill="#f8a6b3" d="m58.87 186.18-6.13 1 .4 2.8 1.61 13.06c18.41 7.48 16.6 3.2 16.6 3.2-.02-1.94.83-2.92 2.24-4.14l-14.72-15.92"/><path fill="#ffc9d2" d="m80.44 172.5-.39-2.33c-.73-5.23-21.8-.35-21.8-.35l-.8 4.34-1.22 1.1.11 9.2-2.93-1.14.36.63s1.4 8.97 1.69 11.81c.3 2.85 10.68 6.97 12.35 7.16 1.67.2 6.42.24 7.8-.49 2.75-1.46 1.46-3.8 1.9-5.69.35-1.45 2.48-9.34 2.58-10.8.1-1.48-1.1-6-1.1-6s1.51-2.52 1.7-4.38c.06-.62-.06-1.79-.25-3.06"/><path fill="#ffc9d2" d="M53.63 182.49s-2.1-3.8-5.34-2.55c-1.34.52-1.73 3.71.4 7.02 2.14 3.31 4.55 5.16 5.99 3.02 0 0-.53-5.98-1.05-7.5"/><path fill="#0e2e7d" d="M78.18 194.14s.82-2.7-.2-2.89c-1.02-.2-6.74-.14-8.01.15-.66.15-1.28.87-1.74 1.53a2.78 2.78 0 0 1-4.38.25l-7.51-8.72s-3.38-3.75-2.71-1.97c.67 1.78 1.06 13.88 1.94 14.92.88 1.02 5.7 4.96 11.65 6.21 5.96 1.25 10.19-.62 10.78-1.73.58-1.1-.15-4.74-.15-5.33 0-.59.33-2.42.33-2.42M70.03 178.16v.45l-3.18.02a2.48 2.48 0 0 0-2.44 2.46 4.13 4.13 0 0 0 3.23 4.23 3.88 3.88 0 0 0 3.3-.8c1-.82 1.56-2.05 1.56-3.38v-.07a2.49 2.49 0 0 0-2.45-2.46h-.01Zm-1.56 8.15a5.02 5.02 0 0 1-4.96-5.24 3.39 3.39 0 0 1 3.33-3.34l3.19-.02h.02a3.4 3.4 0 0 1 3.36 3.35v.08c0 1.6-.7 3.09-1.9 4.07a4.75 4.75 0 0 1-3.04 1.1M80.55 178.16v.45l-2.54.02c-1.01.01-1.85 1.11-1.86 2.46 0 .28.01.56.05.84.23 1.69 1.25 3.09 2.48 3.4.96.24 1.71-.13 2.17-.48a4.73 4.73 0 0 0 1.59-3.7v-.08c-.02-1.36-.85-2.46-1.87-2.46h-.01Zm-1.26 8.15c-.27 0-.55-.04-.83-.1-1.6-.41-2.87-2.09-3.15-4.16a6.92 6.92 0 0 1-.06-.98c.02-1.83 1.25-3.33 2.75-3.34l2.55-.02h.02c1.5 0 2.75 1.5 2.77 3.35v.08c0 1.82-.72 3.47-1.94 4.42-.63.5-1.36.75-2.11.75"/><path fill="#0e2e7d" d="M75.7 181.79a.46.46 0 0 1-.41-.27c-.45-1.02-.79-1.11-.88-1.12-.09 0-.47.07-1.06 1.15a.45.45 0 1 1-.8-.44c.62-1.1 1.24-1.65 1.9-1.61.64.03 1.18.57 1.66 1.65a.46.46 0 0 1-.41.64M80.1 178.63l-14.33-.02H53.51a.45.45 0 0 1-.45-.45c0-.25.2-.45.45-.45h12.26l14.34.02c.25 0 .45.2.45.45s-.2.45-.45.45"/><path fill="#f8a6b3" d="M101.78 269.43s11.86.46 14.69.28c0 0 4.85 3.02 14.37 4.75 3.03.55.21 2.81-1.91 2.81h-13.54l-.75 2.74h-9.23s-3.8-3.7-3.63-10.58"/><path fill="#a3b4ff" d="M50.8 203.29s-26.36 0-24.17 31.67c1.69 24.6 4.53 42.15 12 47.36 7.46 5.2 66.78-2.31 66.78-2.31l-.22-10.47-47.68-8.4-6.94-28.73.23-29.12"/><path fill="#fff" d="M190.11 228h-62.97c-1.57 0-3 1.2-3.3 2.77l-8.7 45.37c-.09.42-.08.83 0 1.2H91.6a8.73 8.73 0 0 0 6.76 3.2h80.14c.83 0 1.64-.17 2.39-.51.5-.23 2.22-1.43 2.53-1.8.35-.43.6-.95.7-1.5l8.71-45.39a2.74 2.74 0 0 0-2.72-3.34"/><path fill="#728be8" d="M92.63 277.8a8.25 8.25 0 0 0 5.73 2.3h80.14c.76 0 1.5-.16 2.2-.48a13.6 13.6 0 0 0 2.37-1.69c.3-.38.52-.82.61-1.3l8.7-45.37a2.4 2.4 0 0 0-.47-1.99 2.3 2.3 0 0 0-1.8-.82h-62.97a3.01 3.01 0 0 0-2.86 2.4l-8.7 45.38c-.07.34-.07.69 0 1.02.03.13 0 .27-.08.38a.45.45 0 0 1-.36.17Zm85.87 3.2H98.36a9.16 9.16 0 0 1-7.11-3.37.46.46 0 0 1-.06-.48.45.45 0 0 1 .41-.26h23.03c-.01-.27 0-.55.06-.83l8.7-45.38a3.89 3.89 0 0 1 3.75-3.13h62.97c.99 0 1.9.42 2.5 1.15.61.74.85 1.73.67 2.73l-8.71 45.38c-.12.61-.4 1.2-.8 1.7-.38.46-2.17 1.69-2.7 1.93-.8.37-1.68.56-2.57.56"/><path fill="#728be8" d="m105.19 270-.08-.01-4.6-.81a.44.44 0 0 1-.27-.17c-4.15-5.33-17.8-5.81-29.85-6.23-2.84-.1-5.52-.2-8.08-.35h-.05a7.94 7.94 0 0 1-6.34-5.96l-4.33-17.94a7.8 7.8 0 0 1 .38-4.9c.65-1.51 1-3.27 1-3.28a.45.45 0 1 1 .89.17c-.02.07-.37 1.87-1.06 3.46a6.92 6.92 0 0 0-.34 4.34l4.34 17.94a7.03 7.03 0 0 0 5.59 5.27c2.54.15 5.21.24 8.04.35 12.73.44 25.9.9 30.41 6.44l4.43.78c.24.04.4.28.36.52a.45.45 0 0 1-.44.38M52.9 284.6c-7.13 0-12.54-.53-14.53-1.91a.45.45 0 0 1-.11-.63c.14-.2.42-.26.62-.11 3.7 2.57 22.05 2.32 51.66-.72.25-.02.46.15.5.4a.46.46 0 0 1-.41.5c-12.63 1.3-27.1 2.48-37.72 2.48M108.69 269.52a.45.45 0 0 1-.4-.25l-2.59-5c-1.06-2.06-2.33-9.54-3.56-16.77-.7-4.14-1.37-8.06-1.93-10.5-1.48-6.5-5.2-13.25-5.24-13.32a.45.45 0 0 1 .17-.61c.22-.12.5-.04.62.17.04.07 3.82 6.94 5.33 13.56.56 2.47 1.23 6.4 1.94 10.55 1.16 6.83 2.47 14.57 3.48 16.5l2.58 5a.45.45 0 0 1-.4.67M69.55 207.9c-2.69 0-7.7-1.49-14.97-4.44a.45.45 0 0 1-.25-.59c.1-.23.36-.34.6-.25 13.23 5.38 15.55 4.49 15.95 4.09.12-.13.07-.3.07-.3-.1-.22 0-.49.23-.59.23-.1.5.02.6.25.1.26.18.82-.26 1.27-.37.37-1.02.55-1.97.55"/><path fill="#728be8" d="M61.17 293.55a.45.45 0 0 1-.42-.29l-2.3-6.24c-.5-.23-1.91-.95-3.6-2.56a.45.45 0 0 1-.02-.64.45.45 0 0 1 .64-.01c1.93 1.84 3.48 2.44 3.5 2.45.12.05.22.14.26.27l2.36 6.42a.45.45 0 0 1-.42.6"/><path fill="#fff" d="M220.74 316.16H21.79v9.9h8.23l2.2 48.5h2.33v-48.5H68.2l2.2 48.5h2.33v-48.5h97.05v48.5h2.33l2.2-48.5h33.66v48.5h2.33l2.2-48.5h8.23v-9.9"/><path fill="#728be8" d="M208.43 374.1h1.45l2.17-48.06c.02-.25.21-.44.45-.44h7.79v-9H22.24v9h7.78c.24 0 .44.2.45.44l2.18 48.06h1.45v-48.05c0-.25.2-.45.45-.45H68.2c.24 0 .44.2.45.44l2.18 48.06h1.45v-48.05c0-.25.2-.45.45-.45h97.05c.25 0 .45.2.45.45v48.05h1.45l2.17-48.06a.45.45 0 0 1 .45-.44h33.67c.25 0 .45.2.45.45Zm1.88.9h-2.33a.45.45 0 0 1-.46-.45v-48.04h-32.77l-2.18 48.06a.45.45 0 0 1-.45.43h-2.33a.45.45 0 0 1-.45-.45v-48.04H73.19v48.04c0 .25-.2.45-.45.45H70.4a.45.45 0 0 1-.46-.43l-2.17-48.06H35v48.04c0 .25-.2.45-.45.45H32.2a.45.45 0 0 1-.44-.43l-2.18-48.06h-7.8a.45.45 0 0 1-.45-.46v-9.89c0-.25.2-.45.45-.45h198.95c.25 0 .45.2.45.45v9.9c0 .24-.2.45-.45.45h-7.8l-2.18 48.06a.46.46 0 0 1-.45.43"/><path fill="#0e2e7d" d="M134.94 219.36h108.11l13.2-105.43h-108.1l-13.21 105.43"/><path fill="#728be8" d="M135.45 218.91h107.2l13.1-104.52H148.53Zm107.6.9H134.94a.45.45 0 0 1-.45-.5l13.2-105.44c.03-.22.22-.39.45-.39h108.11a.45.45 0 0 1 .45.5l-13.2 105.43a.45.45 0 0 1-.45.4"/><path fill="#728be8" d="M214 158.17h-37.85l.41-3.28h37.85l-.42 3.28"/><path fill="#465ebd" d="M219.12 164.03h-37.85l.42-3.28h37.84l-.41 3.28M218.39 169.9h-37.85l.41-3.3h37.84l-.4 3.3M217.65 175.75H179.8l.4-3.28h37.85l-.41 3.28"/><path fill="#728be8" d="M238.7 134.72H164.8l.4-3.28h73.93l-.41 3.28M175.6 128.86h-20.15l.4-3.28h20.17l-.42 3.28"/><path fill="#465ebd" d="M209.76 140.59h-39.85l.41-3.29h39.85l-.4 3.29M209.02 146.45h-39.84l.41-3.29h39.85l-.42 3.29M208.3 152.3h-39.85l.4-3.28h39.85l-.4 3.28M232.83 181.61h-53.76l.41-3.28h53.77l-.42 3.28M232.1 187.48h-53.76l.41-3.29h53.76l-.41 3.29M231.36 193.34h-53.75l.4-3.29h53.77l-.42 3.29M222.91 199.2h-46.04l.41-3.28h46.05l-.42 3.28"/><path fill="#728be8" d="M188.87 205.06h-18.6l.42-3.28h18.59l-.4 3.28"/><path fill="#fff" d="M148.34 141.63h-39.5a8.36 8.36 0 0 0-8.05 7.17l-4.85 38.9a6.19 6.19 0 0 0 6.27 7.17h39.5c3.95 0 7.56-3.21 8.06-7.17l4.84-38.9a6.2 6.2 0 0 0-6.27-7.17"/><path fill="#728be8" d="M108.85 142.08a7.9 7.9 0 0 0-7.62 6.78l-4.84 38.9a5.93 5.93 0 0 0 1.38 4.73 5.82 5.82 0 0 0 4.44 1.93h39.5a7.9 7.9 0 0 0 7.6-6.78l4.85-38.9a5.92 5.92 0 0 0-1.37-4.73 5.82 5.82 0 0 0-4.45-1.93Zm32.86 53.24h-39.5c-2.03 0-3.85-.8-5.12-2.23a6.83 6.83 0 0 1-1.6-5.45l4.85-38.9a8.83 8.83 0 0 1 8.5-7.56h39.5c2.03 0 3.86.8 5.12 2.23a6.8 6.8 0 0 1 1.6 5.45l-4.85 38.9a8.83 8.83 0 0 1-8.5 7.56"/><path fill="#a3b4ff" d="M121.14 184h-4.86L129 152.5h4.85L121.14 184M110.5 168.29l7.26 4.46-.6 4.84-11.92-7.43.48-3.84 13.77-7.41-.6 4.84-8.4 4.54M140.08 168.19l-7.7-4.52.6-4.76 12.34 7.4-.48 3.85-14.19 7.41.6-4.76 8.83-4.62"/></svg>