<svg xmlns="http://www.w3.org/2000/svg" width="800" height="800" viewBox="0 0 512 512" xml:space="preserve"><path d="M495.565 137.12c-6.203 0-12.422-2.484-24.5-3.031-38.828-52.844-107.063-82.188-176.922-77.328-67.359 4.719-106.328 23.734-136.781 47.094-42.719-30.688-92.406-24.813-92.406-24.813l28.734 81.391C70.268 179.886 42.518 197.199.002 207.089L40.83 323.995s41.609 28.078 99.641 53.016l29.328 78.75h64.031V407.62c19.953 4.266 40.281 6.969 60.313 7.328 27.078.469 53.906-3.688 78.875-11.922v52.734h64.032l51.516-149.938c9.766-20.875 15.297-44.281 15.297-69.969 0-21.563-3.688-41.641-10.391-59.969 2-1.875 4.484-3.844 7.656-5.891 19.484-12.529 9.75-32.873-5.563-32.873z" style="fill:#fe59ae"/></svg>
