<svg xmlns="http://www.w3.org/2000/svg" xmlns:xlink="http://www.w3.org/1999/xlink" width="500" zoomAndPan="magnify" viewBox="0 0 375 374.999991" height="500" preserveAspectRatio="xMidYMid meet" version="1.0"><defs><clipPath id="654b4de469"><path d="M 16.171875 0 L 358 0 L 358 375 L 16.171875 375 Z M 16.171875 0 " clip-rule="nonzero"/></clipPath></defs><g clip-path="url(#654b4de469)"><path fill="#000000" d="M 268.570312 0.300781 C 251.972656 0.300781 237.597656 4.785156 227.644531 9.203125 C 217.878906 5.929688 201.691406 0.332031 182.261719 4.371094 C 170.941406 6.339844 160.539062 11.015625 151 18.167969 C 135.289062 10.601562 118.878906 5.960938 101.675781 5.195312 C 91.085938 4.371094 47.929688 9.265625 32.441406 32.03125 C 26.75 40.996094 21.058594 52.378906 18.609375 66.207031 C 16.160156 78.417969 16.160156 92.277344 20.230469 120.765625 C 22.679688 140.285156 25.953125 153.320312 33.269531 180.15625 C 34.09375 182.605469 38.167969 195.640625 50.378906 231.46875 C 52.796875 237.957031 57.691406 250.164062 67.457031 261.546875 C 73.976562 269.6875 80.496094 274.582031 88.636719 274.582031 C 99.226562 274.582031 106.539062 267.269531 113.058594 259.128906 C 113.535156 258.589844 114.046875 257.984375 114.523438 257.445312 C 113.917969 258.398438 113.378906 259.449219 113.058594 260.75 C 111.4375 268.890625 121.203125 275.410156 129.34375 278.652344 C 135.863281 281.894531 143.175781 282.722656 148.871094 282.722656 C 156.183594 282.722656 161.90625 281.101562 165.152344 280.304688 C 167.949219 279.351562 173.992188 276.742188 180.449219 272.453125 C 180.734375 293.246094 180.925781 317.789062 181.433594 323.417969 C 183.882812 344.589844 189.574219 359.214844 200.164062 367.355469 C 208.308594 373.871094 222.96875 374.699219 223.792969 374.699219 C 238.425781 374.699219 261.226562 364.9375 270.988281 349.488281 C 275.886719 342.144531 277.507812 335.625 279.128906 326.660156 C 280.753906 321.796875 282.375 293.308594 283.199219 287.617188 C 284.3125 278.621094 285.171875 269.75 286.03125 261.132812 C 291.40625 262.53125 298.019531 264.027344 305.207031 264.027344 C 318.214844 264.027344 335.324219 255.0625 338.570312 253.40625 C 345.089844 248.542969 358.09375 237.160156 352.402344 227.402344 C 349.160156 221.679688 344.261719 221.679688 332.050781 223.332031 C 332.050781 223.332031 312.523438 225.746094 310.867188 224.921875 C 309.691406 224.476562 307.878906 223.332031 305.84375 221.835938 C 310.074219 215.289062 313.828125 208.800781 318.214844 202.984375 C 327.976562 184.257812 333.703125 169.601562 337.773438 158.21875 C 345.089844 137.871094 349.160156 121.558594 351.574219 110.179688 C 357.300781 85.761719 358.921875 74.378906 355.644531 61.34375 C 349.160156 38.546875 325.53125 19.027344 315.765625 13.335938 C 309.246094 10.0625 292.996094 0.300781 268.570312 0.300781 Z M 268.570312 16.578125 C 288.925781 16.578125 302.757812 24.71875 310.074219 27.960938 C 319.042969 32.855469 339.394531 49.136719 341.015625 64.585938 C 341.84375 73.550781 342.640625 82.519531 336.945312 106.109375 C 333.703125 117.492188 330.425781 132.148438 323.082031 152.496094 C 319.011719 163.878906 314.144531 177.738281 304.382812 194.84375 C 304.125 195.257812 303.839844 195.703125 303.585938 196.148438 C 304.539062 192.714844 305.207031 189.949219 305.207031 189.949219 C 306.832031 181.808594 306.832031 175.292969 306.003906 165.53125 C 305.175781 160.632812 304.382812 148.425781 304.382812 143.53125 C 304.382812 141.113281 306.796875 115.871094 307.625 106.902344 C 308.453125 92.277344 299.484375 74.347656 297.066406 71.105469 C 284.855469 52.378906 278.335938 41.824219 265.296875 31.234375 C 262.054688 28.46875 256.488281 23.859375 248.917969 19.21875 C 254.898438 17.753906 261.511719 16.578125 268.570312 16.578125 Z M 196.636719 19.917969 C 207.257812 20.171875 216.257812 23.097656 222.96875 25.542969 C 240.078125 31.234375 250.636719 40.167969 255.535156 44.238281 C 266.125 53.203125 271.816406 62.171875 284.027344 80.898438 C 284.917969 82.675781 287.238281 86.460938 289.085938 91.738281 C 272.421875 90.210938 261.351562 96.0625 254.707031 102.039062 C 244.941406 110.179688 245.738281 122.386719 246.566406 131.320312 C 246.566406 137.839844 248.21875 146.007812 260.429688 173.667969 C 265.296875 185.878906 270.164062 198.882812 275.058594 207.847656 C 277.605469 212.902344 280.71875 217.542969 284.058594 221.679688 C 282.121094 222.664062 280.148438 223.933594 278.304688 225.746094 C 273.4375 231.4375 272.609375 237.160156 270.988281 247.75 C 269.367188 255.886719 267.746094 272.960938 266.917969 286.789062 C 266.917969 292.480469 264.5 320.171875 263.675781 324.242188 C 261.226562 332.382812 260.398438 336.453125 257.15625 341.347656 C 251.460938 350.28125 233.558594 357.625 222.96875 356.800781 C 219.722656 356.800781 214.828125 356.800781 210.757812 353.558594 C 201.789062 347.039062 198.542969 332.382812 197.71875 321 C 196.890625 312.859375 197.71875 254.234375 196.09375 241.199219 C 195.269531 237.957031 194.472656 229.816406 187.953125 224.125 C 185.21875 221.835938 179.558594 220.660156 174.214844 219.867188 C 174.277344 217.132812 174.4375 214.398438 174.945312 211.917969 C 175.742188 207.019531 177.363281 204.574219 179.015625 200.503906 C 179.8125 198.085938 181.433594 194.84375 183.089844 190.773438 C 190.402344 167.980469 188.75 137.839844 184.679688 119.113281 C 183.882812 117.492188 180.609375 104.488281 169.222656 97.175781 C 157.011719 89.832031 143.972656 93.898438 136.65625 96.347656 C 133.636719 97.175781 130.648438 98.480469 127.65625 100.003906 C 128.167969 96.601562 128.609375 93.167969 129.34375 89.832031 C 132.585938 73.550781 135.863281 59.722656 146.453125 45.890625 C 157.835938 32.03125 170.84375 23.097656 185.503906 20.648438 C 189.386719 20.042969 193.105469 19.820312 196.636719 19.917969 Z M 96.109375 21.347656 C 98.019531 21.316406 99.640625 21.347656 100.847656 21.476562 C 113.570312 22.144531 125.75 25.132812 137.832031 30.21875 C 136.339844 31.871094 134.84375 33.523438 133.414062 35.304688 C 119.578125 51.582031 116.304688 68.65625 113.058594 85.761719 C 108.988281 106.109375 108.164062 127.25 111.40625 148.425781 L 109.816406 163.878906 C 108.988281 172.015625 107.335938 187.5 116.304688 203.777344 C 119.453125 209.183594 122.917969 213.761719 126.734375 217.671875 C 118.464844 228.609375 109.6875 238.941406 100.847656 248.542969 C 95.949219 254.234375 91.878906 258.304688 88.636719 258.304688 C 87.808594 258.304688 84.566406 256.683594 79.667969 250.992188 C 70.699219 241.230469 67.457031 230.644531 65.835938 226.574219 C 56.070312 197.261719 50.378906 178.535156 49.550781 176.085938 C 43.03125 150.046875 39.789062 137.042969 36.511719 118.316406 C 32.441406 92.277344 32.441406 79.242188 34.890625 68.6875 C 37.339844 57.273438 41.410156 48.308594 45.480469 41.824219 C 55.464844 26.148438 82.878906 21.699219 96.109375 21.347656 Z M 282.914062 107.125 C 285.523438 107.125 288.351562 107.445312 291.34375 108.082031 C 291.246094 115.679688 288.097656 139.523438 288.097656 142.734375 C 288.097656 149.253906 289.71875 162.257812 289.71875 167.152344 C 290.546875 176.117188 290.546875 180.980469 289.71875 187.5 C 289.71875 187.5 288.511719 193.316406 287.273438 197.453125 C 283.488281 188.898438 279.289062 178.691406 274.234375 167.152344 C 262.019531 139.492188 261.226562 133.800781 261.226562 129.730469 C 261.226562 124.007812 261.226562 116.695312 266.089844 113.453125 C 270.671875 109.382812 276.238281 107.191406 282.914062 107.125 Z M 156.535156 109.511719 C 158.15625 109.703125 159.648438 110.179688 161.082031 110.972656 C 167.601562 114.25 169.222656 122.386719 169.222656 122.386719 C 173.292969 140.285156 174.914062 167.152344 168.394531 185.050781 C 167.601562 188.292969 165.980469 190.742188 165.152344 193.191406 C 163.53125 197.261719 161.90625 201.332031 160.253906 208.644531 C 159.839844 211.664062 159.648438 214.652344 159.554688 217.640625 C 153.925781 216.464844 148.613281 214.460938 144.796875 211.917969 C 138.277344 208.675781 133.414062 202.953125 130.167969 196.433594 C 124.445312 184.226562 125.273438 172.84375 126.097656 166.355469 L 127.6875 147.597656 C 126.542969 138.441406 126.003906 129.253906 126.128906 120.128906 C 129.882812 116.917969 134.78125 113.644531 141.554688 111.800781 C 146.453125 110.59375 151.796875 108.90625 156.535156 109.511719 Z M 276.585938 114.980469 C 274.457031 115.074219 272.199219 115.457031 270.988281 115.871094 C 267.746094 116.695312 266.917969 116.695312 266.089844 118.316406 C 265.296875 119.9375 267.746094 122.386719 268.570312 124.007812 C 269.367188 124.007812 271.816406 126.457031 275.058594 125.660156 C 277.507812 124.835938 279.128906 123.214844 279.957031 122.386719 C 280.785156 121.558594 284.027344 117.492188 281.578125 115.871094 C 280.753906 115.042969 278.71875 114.851562 276.585938 114.980469 Z M 154.6875 120.894531 C 153.796875 120.957031 152.941406 121.179688 152.113281 121.59375 C 151.316406 121.59375 149.695312 122.386719 148.871094 124.007812 C 148.042969 125.628906 148.871094 127.25 149.695312 128.078125 C 151.316406 130.527344 153.765625 132.972656 157.835938 132.972656 C 158.664062 132.972656 161.90625 132.972656 164.324219 130.527344 C 164.324219 130.527344 166.804688 128.078125 166.804688 125.660156 C 165.980469 124.007812 164.355469 123.214844 161.90625 122.386719 C 160.0625 121.78125 157.328125 120.703125 154.6875 120.894531 Z M 139.710938 227.402344 C 144.703125 230.070312 150.714844 232.234375 157.296875 233.726562 C 155.546875 237.226562 153.035156 240.117188 150.523438 242.027344 C 144.796875 246.09375 137.484375 248.542969 130.167969 250.164062 C 128.515625 250.164062 127.722656 250.992188 126.097656 250.992188 C 122.15625 252.105469 118.339844 253.34375 115.730469 256.046875 C 123.714844 247.175781 131.726562 237.382812 139.710938 227.402344 Z M 296.683594 233.917969 C 300.246094 236.589844 303.746094 238.558594 306.796875 239.609375 C 311.695312 241.230469 315.765625 241.230469 330.425781 239.609375 C 327.976562 242.027344 320.664062 246.09375 310.074219 247.75 C 303.269531 248.417969 294.808594 246.792969 287.941406 244.824219 C 288.574219 240.214844 289.308594 237.574219 290.515625 236.335938 C 290.960938 235.921875 293.664062 235.09375 296.683594 233.917969 Z M 174.089844 236.367188 C 175.773438 236.652344 177.109375 236.875 177.363281 237.128906 C 178.984375 238.78125 179.8125 242.851562 179.8125 244.472656 C 179.90625 245.871094 179.972656 249.402344 180.035156 251.851562 C 173.324219 259.703125 162.542969 264.058594 160.253906 264.820312 C 157.011719 266.441406 147.246094 268.0625 137.484375 264.820312 C 145.625 262.375 153.765625 259.957031 160.253906 255.0625 C 165.945312 250.992188 170.84375 244.503906 174.089844 236.367188 Z M 174.089844 236.367188 " fill-opacity="1" fill-rule="nonzero"/></g></svg>