<svg xmlns="http://www.w3.org/2000/svg" xmlns:xlink="http://www.w3.org/1999/xlink" width="500" zoomAndPan="magnify" viewBox="0 0 375 374.999991" height="500" preserveAspectRatio="xMidYMid meet" version="1.0"><defs><clipPath id="613ce0cf31"><path d="M 13.453125 34 L 361.453125 34 L 361.453125 339 L 13.453125 339 Z M 13.453125 34 " clip-rule="nonzero"/></clipPath></defs><path fill="#000000" d="M 187.453125 155.542969 C 170.253906 155.542969 156.320312 169.472656 156.320312 186.664062 C 156.320312 203.855469 170.253906 217.785156 187.453125 217.785156 C 204.648438 217.785156 218.582031 203.855469 218.582031 186.664062 C 218.582031 169.472656 204.648438 155.542969 187.453125 155.542969 Z M 187.453125 155.542969 " fill-opacity="1" fill-rule="nonzero"/><g clip-path="url(#613ce0cf31)"><path fill="#000000" d="M 78.90625 241.777344 C 81.964844 242.789062 85.023438 243.820312 88.15625 244.703125 C 87.140625 248.777344 86.257812 252.792969 85.429688 256.9375 C 78.296875 294.65625 83.863281 324.542969 101.671875 334.808594 C 120.027344 345.402344 150.882812 334.53125 180.925781 308.238281 C 183.304688 306.136719 185.683594 303.960938 188.0625 301.640625 C 191.046875 304.570312 194.179688 307.351562 197.296875 310.0625 C 226.382812 335.066406 255.136719 345.1875 272.886719 334.9375 C 291.242188 324.339844 297.21875 292.203125 289.472656 253.066406 C 288.863281 250.082031 288.183594 247.023438 287.429688 243.890625 C 289.605469 243.28125 291.707031 242.601562 293.824219 241.921875 C 333.046875 228.945312 361.453125 207.945312 361.453125 186.402344 C 361.453125 165.820312 334.671875 145.84375 297.695312 133.132812 L 297.695312 133.117188 C 294.027344 131.902344 290.359375 130.742188 286.691406 129.652344 C 287.300781 127.144531 287.851562 124.625 288.386719 122.117188 C 296.753906 81.617188 291.242188 49.089844 272.683594 38.347656 C 254.804688 28.085938 225.644531 38.753906 196.152344 64.4375 C 193.222656 66.945312 190.382812 69.597656 187.65625 72.253906 C 185.8125 70.484375 183.914062 68.714844 182.015625 67.019531 C 151.085938 39.566406 120.097656 28.011719 101.539062 38.824219 C 83.734375 49.160156 78.425781 79.804688 85.910156 118.101562 C 86.664062 121.914062 87.472656 125.636719 88.417969 129.449219 C 84.066406 130.667969 79.789062 132.03125 75.773438 133.464844 C 39.480469 146.035156 13.453125 165.878906 13.453125 186.402344 C 13.453125 207.609375 41.175781 228.859375 78.90625 241.777344 Z M 171.34375 297.132812 C 160.132812 307.394531 147.140625 315.542969 133.003906 321.125 C 125.464844 324.71875 116.765625 325.066406 109.007812 322.007812 C 98.203125 315.761719 93.710938 291.769531 99.828125 259.488281 C 100.582031 255.691406 101.394531 251.878906 102.335938 248.140625 C 117.5625 251.402344 132.917969 253.648438 148.492188 254.792969 C 157.464844 267.503906 167.3125 279.667969 177.851562 291.074219 C 175.679688 293.175781 173.503906 295.21875 171.328125 297.117188 Z M 257.660156 169.546875 C 254.472656 163.558594 251.207031 157.585938 247.800781 151.746094 C 244.464844 145.976562 241 140.265625 237.40625 134.625 C 248.351562 135.988281 258.820312 137.816406 268.609375 140.0625 C 265.476562 150.121094 261.808594 159.90625 257.660156 169.546875 Z M 257.792969 203.378906 C 262.140625 213.234375 265.953125 223.222656 269.277344 233.484375 C 258.734375 235.863281 248.078125 237.703125 237.332031 238.921875 C 241 233.207031 244.464844 227.367188 247.875 221.527344 C 251.339844 215.539062 254.601562 209.496094 257.792969 203.378906 Z M 249.933594 186.476562 C 245.378906 195.855469 240.476562 205.085938 235.257812 214.191406 C 230.097656 223.222656 224.585938 231.992188 218.816406 240.6875 C 208.695312 241.441406 198.152344 241.777344 187.480469 241.777344 C 176.808594 241.777344 166.484375 241.441406 156.496094 240.820312 C 150.578125 232.195312 145.011719 223.351562 139.777344 214.320312 C 134.542969 205.289062 129.714844 196.113281 125.160156 186.738281 L 125.132812 186.738281 C 129.613281 177.359375 134.511719 168.183594 139.675781 159.152344 C 144.835938 150.121094 150.417969 141.351562 156.261719 132.726562 C 166.457031 131.972656 176.851562 131.566406 187.464844 131.566406 C 198.082031 131.566406 208.535156 131.972656 218.671875 132.726562 C 224.441406 141.292969 229.953125 150.050781 235.1875 159.023438 C 240.421875 167.996094 245.308594 177.167969 249.933594 186.476562 Z M 127.015625 151.875 C 123.679688 157.644531 120.417969 163.542969 117.359375 169.53125 C 113.082031 159.414062 109.472656 149.496094 106.484375 139.917969 C 116.269531 137.742188 126.667969 135.972656 137.46875 134.609375 C 133.890625 140.25 130.351562 146.019531 127.015625 151.875 Z M 117.375 203.914062 C 120.503906 209.898438 123.695312 215.8125 127.089844 221.65625 C 130.554688 227.570312 134.09375 233.484375 137.832031 239.253906 C 127.234375 238.09375 116.691406 236.398438 106.296875 234.152344 C 109.28125 224.367188 113.023438 214.25 117.375 203.914062 Z M 188.003906 280.609375 C 181.070312 273.144531 174.140625 264.867188 167.414062 255.953125 C 173.9375 256.226562 180.664062 256.359375 187.464844 256.359375 C 194.46875 256.359375 201.328125 256.226562 208.128906 255.878906 C 201.878906 264.503906 195.152344 272.738281 188.003906 280.609375 Z M 276.84375 301.019531 C 276.222656 309.296875 272.144531 317.035156 265.621094 322.269531 C 254.820312 328.515625 231.777344 320.371094 206.894531 299.03125 C 204.039062 296.582031 201.183594 293.929688 198.269531 291.21875 C 208.664062 279.738281 218.25 267.578125 226.949219 254.808594 C 242.507812 253.515625 258.007812 251.140625 273.304688 247.675781 C 273.988281 250.457031 274.597656 253.242188 275.148438 255.964844 C 278.484375 270.652344 279.019531 285.929688 276.84375 301.019531 Z M 282.746094 143.65625 C 286.285156 144.671875 289.675781 145.757812 292.9375 146.84375 C 324.605469 157.71875 346.835938 173.894531 346.835938 186.257812 C 346.835938 199.578125 323.113281 216.769531 289.199219 227.976562 C 287.300781 228.585938 285.398438 229.195312 283.425781 229.746094 C 278.671875 214.929688 272.828125 200.464844 266.101562 186.390625 C 272.625 172.53125 278.136719 158.253906 282.746094 143.65625 Z M 205.722656 75.441406 C 231.023438 53.4375 254.601562 44.8125 265.347656 50.988281 C 276.828125 57.582031 281.253906 84.210938 274.046875 119.203125 C 273.566406 121.507812 273.089844 123.753906 272.480469 126 C 257.386719 122.609375 242.101562 120.160156 226.734375 118.796875 C 217.902344 106.140625 208.246094 94.054688 197.777344 82.703125 C 200.429688 80.195312 203.011719 77.820312 205.722656 75.441406 Z M 187.597656 93.109375 C 194.730469 100.851562 201.457031 108.996094 207.707031 117.417969 C 194.253906 116.8125 180.722656 116.8125 167.269531 117.417969 C 173.921875 108.664062 180.796875 100.519531 187.597656 93.109375 Z M 108.746094 51.464844 C 120.171875 44.8125 145.519531 54.320312 172.226562 77.964844 C 173.921875 79.457031 175.621094 81.09375 177.390625 82.71875 C 166.847656 94.054688 157.132812 106.140625 148.230469 118.78125 C 132.875 120.144531 117.648438 122.523438 102.554688 125.855469 C 101.671875 122.390625 100.929688 118.855469 100.175781 115.316406 C 93.78125 82.429688 98 57.640625 108.746094 51.464844 Z M 80.542969 147.25 C 84.414062 145.890625 88.359375 144.671875 92.304688 143.511719 C 96.929688 158.253906 102.496094 172.734375 108.949219 186.722656 C 102.425781 200.925781 96.785156 215.597656 92.101562 230.542969 L 92.085938 230.554688 C 89.230469 229.746094 86.445312 228.859375 83.660156 227.902344 C 69.191406 223.351562 52.734375 216.148438 40.84375 206.710938 C 33.984375 201.957031 29.359375 194.621094 28.066406 186.390625 C 28.066406 173.953125 49.542969 158.050781 80.542969 147.25 Z M 80.542969 147.25 " fill-opacity="1" fill-rule="nonzero"/></g></svg>