<svg xmlns="http://www.w3.org/2000/svg" xmlns:xlink="http://www.w3.org/1999/xlink" width="500" zoomAndPan="magnify" viewBox="0 0 375 374.999991" height="500" preserveAspectRatio="xMidYMid meet" version="1.0"><defs><clipPath id="74ec1f50a1"><path d="M 37.5 255 L 120 255 L 120 337.5 L 37.5 337.5 Z M 37.5 255 " clip-rule="nonzero"/></clipPath><clipPath id="3ae2277045"><path d="M 37.5 146 L 229 146 L 229 337.5 L 37.5 337.5 Z M 37.5 146 " clip-rule="nonzero"/></clipPath><clipPath id="427403a598"><path d="M 37.5 37.5 L 337.5 37.5 L 337.5 337.5 L 37.5 337.5 Z M 37.5 37.5 " clip-rule="nonzero"/></clipPath></defs><rect x="-37.5" width="450" fill="#ffffff" y="-37.499999" height="449.999989" fill-opacity="1"/><rect x="-37.5" width="450" fill="#ffffff" y="-37.499999" height="449.999989" fill-opacity="1"/><g clip-path="url(#74ec1f50a1)"><path fill="#1a1a1a" d="M 78.378906 255.625 C 67.023438 255.625 57.367188 259.601562 49.414062 267.554688 C 41.480469 275.503906 37.5 285.148438 37.5 296.503906 C 37.5 307.859375 41.46875 317.503906 49.414062 325.453125 C 57.367188 333.402344 67.023438 337.382812 78.378906 337.382812 C 89.734375 337.382812 99.378906 333.402344 107.328125 325.453125 C 115.277344 317.503906 119.246094 307.859375 119.246094 296.503906 C 119.246094 285.148438 115.277344 275.503906 107.328125 267.554688 C 99.378906 259.601562 89.734375 255.625 78.378906 255.625 " fill-opacity="1" fill-rule="nonzero"/></g><g clip-path="url(#3ae2277045)"><path fill="#1a1a1a" d="M 211.109375 257.546875 C 201.527344 236.828125 188.65625 218.441406 172.476562 202.40625 C 156.4375 186.226562 138.050781 173.339844 117.328125 163.769531 C 96.613281 154.191406 74.898438 148.472656 52.183594 146.621094 L 51.125 146.621094 C 47.4375 146.621094 44.375 147.835938 41.964844 150.246094 C 38.992188 152.796875 37.5 156.128906 37.5 160.246094 L 37.5 188.996094 C 37.5 192.542969 38.675781 195.59375 41.007812 198.140625 C 43.359375 200.707031 46.300781 202.125 49.847656 202.40625 C 82.34375 205.53125 110.125 218.621094 133.191406 241.675781 C 156.257812 264.746094 169.351562 292.519531 172.476562 325.035156 C 172.757812 328.582031 174.175781 331.523438 176.726562 333.859375 C 179.289062 336.207031 182.339844 337.382812 185.886719 337.382812 L 214.621094 337.382812 C 218.742188 337.382812 222.070312 335.890625 224.636719 332.902344 C 227.328125 330.074219 228.539062 326.667969 228.257812 322.683594 C 226.410156 299.984375 220.695312 278.269531 211.109375 257.546875 " fill-opacity="1" fill-rule="nonzero"/></g><g clip-path="url(#427403a598)"><path fill="#1a1a1a" d="M 337.25 323.121094 C 335.410156 285.925781 326.886719 250.339844 311.703125 216.347656 C 296.519531 182.347656 275.65625 152.160156 249.121094 125.761719 C 222.710938 99.222656 192.523438 78.363281 158.535156 63.167969 C 124.539062 47.980469 88.941406 39.472656 51.761719 37.621094 L 51.125 37.621094 C 47.4375 37.621094 44.316406 38.898438 41.761719 41.449219 C 38.917969 44.011719 37.5 47.277344 37.5 51.246094 L 37.5 81.695312 C 37.5 85.242188 38.738281 88.328125 41.226562 90.957031 C 43.710938 93.582031 46.722656 94.960938 50.269531 95.101562 C 80.792969 96.949219 109.777344 104.183594 137.234375 116.816406 C 164.707031 129.449219 188.542969 145.882812 208.777344 166.105469 C 229 186.328125 245.421875 210.175781 258.050781 237.632812 C 270.6875 265.101562 277.855469 294.089844 279.550781 324.613281 C 279.703125 328.160156 281.082031 331.167969 283.710938 333.65625 C 286.339844 336.132812 289.488281 337.382812 293.175781 337.382812 L 323.621094 337.382812 C 327.601562 337.382812 330.855469 335.964844 333.417969 333.121094 C 336.25 330.289062 337.523438 326.949219 337.25 323.121094 " fill-opacity="1" fill-rule="nonzero"/></g></svg>