<svg xmlns="http://www.w3.org/2000/svg" xmlns:xlink="http://www.w3.org/1999/xlink" width="500" zoomAndPan="magnify" viewBox="0 0 375 374.999991" height="500" preserveAspectRatio="xMidYMid meet" version="1.0"><defs><clipPath id="e33202744a"><path d="M 25.464844 25.464844 L 349.464844 25.464844 L 349.464844 349.464844 L 25.464844 349.464844 Z M 25.464844 25.464844 " clip-rule="nonzero"/></clipPath></defs><g clip-path="url(#e33202744a)"><path fill="#000000" d="M 25.464844 61.464844 L 25.464844 313.464844 C 25.464844 333.355469 41.574219 349.464844 61.464844 349.464844 L 313.464844 349.464844 C 333.355469 349.464844 349.464844 333.355469 349.464844 313.464844 L 349.464844 61.464844 C 349.464844 41.574219 333.355469 25.464844 313.464844 25.464844 L 61.464844 25.464844 C 41.574219 25.464844 25.464844 41.574219 25.464844 61.464844 Z M 217.453125 195.582031 L 179.328125 195.582031 L 179.328125 313.464844 L 148.605469 313.464844 L 148.605469 195.582031 L 111.273438 195.582031 L 111.273438 169.464844 L 217.453125 169.464844 Z M 223.429688 306.734375 L 223.429688 275.214844 C 223.429688 275.214844 240.636719 288.195312 261.300781 288.195312 C 281.964844 288.195312 281.15625 274.695312 281.15625 272.839844 C 281.15625 253.238281 222.636719 253.238281 222.636719 209.820312 C 222.636719 150.765625 307.902344 174.074219 307.902344 174.074219 L 306.84375 202.136719 C 306.84375 202.136719 292.550781 192.597656 276.386719 192.597656 C 260.238281 192.597656 254.40625 200.28125 254.40625 208.488281 C 254.40625 229.675781 313.464844 227.550781 313.464844 270.195312 C 313.464844 335.859375 223.429688 306.734375 223.429688 306.734375 Z M 223.429688 306.734375 " fill-opacity="1" fill-rule="nonzero"/></g></svg>